<?xml version="1.0" encoding="UTF-8" standalone="no"?>
<!-- Created by Jyntrax https://github.com/atp-mipt/jsyntrax -->
<svg xmlns="http://www.w3.org/2000/svg"
xmlns:xlink="http://www.w3.org/1999/xlink"
xml:space="preserve"
width="202" height="42" version="1.1">
<style type="text/css">
<![CDATA[
.title_font {fill:#000000; text-anchor:middle;
font-family:Sans; font-size:22pt; font-weight:bold; font-style:normal; }
.token_font {fill:#000000; text-anchor:middle;
font-family:Sans; font-size:16pt; font-weight:bold; font-style:normal; }
.box_font {fill:#000000; text-anchor:middle;
font-family:Times; font-size:14pt; font-weight:normal; font-style:italic; }
.bubble_font {fill:#000000; text-anchor:middle;
font-family:Sans; font-size:14pt; font-weight:bold; font-style:normal; }
.hex_font {fill:#000000; text-anchor:middle;
font-family:Sans; font-size:14pt; font-weight:bold; font-style:normal; }
.label {fill: #000; text-anchor:middle; font-size:16pt; font-weight:bold; font-family:Sans;}
.link {fill: #0D47A1;}
.link:hover {fill: #0D47A1; text-decoration:underline;}
.link:visited {fill: #4A148C;}
]]>
</style>
<defs>
<marker id="arrow" markerWidth="5" markerHeight="4" refX="2.5" refY="2" orient="auto" markerUnits="strokeWidth">
<path d="M0,0 L0.5,2 L0,4 L4.5,2 z" fill="#000000" />
</marker>
</defs>
<rect width="100%" height="100%" fill="white"/>
<circle cx="8" cy="17" r="3" stroke="#000000" stroke-width="2" fill="#ffffff"/>
<path d="M63,36 A14,14 0 0,1 63,8 H145 A14,14 0 0,1 145,36 z" fill="#000000" fill-opacity="0.4980392156862745" />
<path d="M60,33 A14,14 0 0,1 60,5 H142 A14,14 0 0,1 142,33 z" stroke="#000000" stroke-width="2" fill="#b3e5fc" fill-opacity="1.0" />
<text class="bubble_font" x="101" y="24">JSYNTRAX</text>
<line x1="100" y1="37" x2="101" y2="37" stroke="#000000" stroke-width="2" />
<line x1="28" y1="17" x2="46" y2="17" stroke="#000000" stroke-width="2" />
<line x1="156" y1="17" x2="175" y2="17" stroke="#000000" stroke-width="2" />
<path d="M37,26 A9,9 0 0,0 28,17" stroke="#000000" stroke-width="2" fill="none"/>
<line x1="46" y1="37" x2="96" y2="37" stroke="#000000" stroke-width="2" marker-end="url(#arrow)" />
<line x1="101" y1="37" x2="156" y2="37" stroke="#000000" stroke-width="2" />
<path d="M37,28 A9,9 0 0,0 46,37" stroke="#000000" stroke-width="2" fill="none"/>
<path d="M156,37 A9,9 0 0,0 165,28" stroke="#000000" stroke-width="2" fill="none"/>
<path d="M174,17 A9,9 0 0,0 165,26" stroke="#000000" stroke-width="2" fill="none"/>
<line x1="37" y1="28" x2="37" y2="26" stroke="#000000" stroke-width="2" />
<line x1="165" y1="28" x2="165" y2="26" stroke="#000000" stroke-width="2" />
<line x1="10" y1="17" x2="24" y2="17" stroke="#000000" stroke-width="2" marker-end="url(#arrow)" />
<circle cx="194" cy="17" r="3" stroke="#000000" stroke-width="2" fill="#ffffff"/>
<line x1="173" y1="17" x2="187" y2="17" stroke="#000000" stroke-width="2" marker-end="url(#arrow)" />
</svg>
