<?xml version="1.0" encoding="UTF-8" standalone="no"?>
<!-- Created by Jyntrax https://github.com/atp-mipt/jsyntrax -->
<svg xmlns="http://www.w3.org/2000/svg"
xmlns:xlink="http://www.w3.org/1999/xlink"
xml:space="preserve"
width="629" height="226" version="1.1">
<style type="text/css">
<![CDATA[
.title_font {fill:#000000; text-anchor:middle;
font-family:Helvetica; font-size:16pt; font-weight:bold; font-style:normal; }
.token_font {fill:#000000; text-anchor:middle;
font-family:Helvetica; font-size:16pt; font-weight:bold; font-style:normal; }
.box_font {fill:#000000; text-anchor:middle;
font-family:Times; font-size:14pt; font-weight:normal; font-style:italic; }
.bubble_font {fill:#000000; text-anchor:middle;
font-family:Helvetica; font-size:14pt; font-weight:bold; font-style:normal; }
.label {fill: #000; text-anchor:middle; font-size:16pt; font-weight:bold; font-family:Sans;}
.link {fill: #0D47A1;}
.link:hover {fill: #0D47A1; text-decoration:underline;}
.link:visited {fill: #4A148C;}
]]>
</style>
<defs>
<marker id="arrow" markerWidth="5" markerHeight="4" refX="2.5" refY="2" orient="auto" markerUnits="strokeWidth">
<path d="M0,0 L0.5,2 L0,4 L4.5,2 z" fill="#000000" />
</marker>
</defs>
<circle cx="8" cy="20" r="3" stroke="#000000" stroke-width="2" fill="#ffffff"/>
<line x1="73" y1="20" x2="74" y2="20" stroke="#000000" stroke-width="2" />
<path d="M75,59 A16,16 0 0,1 75,27 H79 A16,16 0 0,1 79,59 z" fill="#000000" fill-opacity="0.4980392156862745" />
<path d="M72,56 A16,16 0 0,1 72,24 H76 A16,16 0 0,1 76,56 z" stroke="#000000" stroke-width="2" fill="#b3e5fc" fill-opacity="1.0" />
<text class="token_font" x="74" y="45">-</text>
<line x1="28" y1="20" x2="69" y2="20" stroke="#000000" stroke-width="2" marker-end="url(#arrow)" />
<line x1="74" y1="20" x2="121" y2="20" stroke="#000000" stroke-width="2" />
<path d="M37,29 A9,9 0 0,0 28,20" stroke="#000000" stroke-width="2" fill="none"/>
<line x1="46" y1="39" x2="52" y2="39" stroke="#000000" stroke-width="2" marker-end="url(#arrow)" />
<line x1="92" y1="39" x2="102" y2="39" stroke="#000000" stroke-width="2" />
<path d="M37,30 A9,9 0 0,0 46,39" stroke="#000000" stroke-width="2" fill="none"/>
<path d="M102,39 A9,9 0 0,0 111,30" stroke="#000000" stroke-width="2" fill="none"/>
<path d="M120,20 A9,9 0 0,0 111,29" stroke="#000000" stroke-width="2" fill="none"/>
<line x1="37" y1="30" x2="37" y2="29" stroke="#000000" stroke-width="2" />
<line x1="111" y1="30" x2="111" y2="29" stroke="#000000" stroke-width="2" />
<path d="M184,40 A16,16 0 0,1 184,8 H191 A16,16 0 0,1 191,40 z" fill="#000000" fill-opacity="0.4980392156862745" />
<path d="M181,37 A16,16 0 0,1 181,5 H188 A16,16 0 0,1 188,37 z" stroke="#000000" stroke-width="2" fill="#b3e5fc" fill-opacity="1.0" />
<text class="token_font" x="184" y="26">0</text>
<path d="M184,76 A16,16 0 0,1 184,44 H208 A16,16 0 0,1 208,76 z" fill="#000000" fill-opacity="0.4980392156862745" />
<path d="M181,73 A16,16 0 0,1 181,41 H205 A16,16 0 0,1 205,73 z" stroke="#000000" stroke-width="2" fill="#b3e5fc" fill-opacity="1.0" />
<text class="token_font" x="193" y="62">1-9</text>
<line x1="274" y1="56" x2="275" y2="56" stroke="#000000" stroke-width="2" />
<path d="M266,95 A16,16 0 0,1 266,63 H290 A16,16 0 0,1 290,95 z" fill="#000000" fill-opacity="0.4980392156862745" />
<path d="M263,92 A16,16 0 0,1 263,60 H287 A16,16 0 0,1 287,92 z" stroke="#000000" stroke-width="2" fill="#b3e5fc" fill-opacity="1.0" />
<text class="token_font" x="275" y="81">0-9</text>
<line x1="247" y1="56" x2="270" y2="56" stroke="#000000" stroke-width="2" marker-end="url(#arrow)" />
<line x1="275" y1="56" x2="303" y2="56" stroke="#000000" stroke-width="2" />
<line x1="238" y1="56" x2="247" y2="56" stroke="#000000" stroke-width="2" />
<path d="M247,56 A9,9 0 0,0 247,74" stroke="#000000" stroke-width="2" fill="none"/>
<path d="M303,74 A9,9 0 0,0 303,56" stroke="#000000" stroke-width="2" fill="none"/>
<line x1="303" y1="56" x2="312" y2="56" stroke="#000000" stroke-width="2" />
<line x1="220" y1="56" x2="234" y2="56" stroke="#000000" stroke-width="2" marker-end="url(#arrow)" />
<line x1="137" y1="20" x2="161" y2="20" stroke="#000000" stroke-width="2" marker-end="url(#arrow)" />
<line x1="204" y1="20" x2="341" y2="20" stroke="#000000" stroke-width="2" />
<path d="M146,29 A9,9 0 0,0 137,20" stroke="#000000" stroke-width="2" fill="none"/>
<line x1="155" y1="56" x2="161" y2="56" stroke="#000000" stroke-width="2" marker-end="url(#arrow)" />
<line x1="312" y1="56" x2="322" y2="56" stroke="#000000" stroke-width="2" />
<path d="M146,47 A9,9 0 0,0 155,56" stroke="#000000" stroke-width="2" fill="none"/>
<path d="M322,56 A9,9 0 0,0 331,47" stroke="#000000" stroke-width="2" fill="none"/>
<path d="M340,20 A9,9 0 0,0 331,29" stroke="#000000" stroke-width="2" fill="none"/>
<line x1="146" y1="47" x2="146" y2="29" stroke="#000000" stroke-width="2" />
<line x1="331" y1="47" x2="331" y2="29" stroke="#000000" stroke-width="2" />
<line x1="119" y1="20" x2="133" y2="20" stroke="#000000" stroke-width="2" marker-end="url(#arrow)" />
<line x1="448" y1="20" x2="449" y2="20" stroke="#000000" stroke-width="2" />
<path d="M404,59 A16,16 0 0,1 404,27 H407 A16,16 0 0,1 407,59 z" fill="#000000" fill-opacity="0.4980392156862745" />
<path d="M401,56 A16,16 0 0,1 401,24 H404 A16,16 0 0,1 404,56 z" stroke="#000000" stroke-width="2" fill="#b3e5fc" fill-opacity="1.0" />
<text class="token_font" x="402" y="45">.</text>
<path d="M465,59 A16,16 0 0,1 465,27 H489 A16,16 0 0,1 489,59 z" fill="#000000" fill-opacity="0.4980392156862745" />
<path d="M462,56 A16,16 0 0,1 462,24 H486 A16,16 0 0,1 486,56 z" stroke="#000000" stroke-width="2" fill="#b3e5fc" fill-opacity="1.0" />
<text class="token_font" x="474" y="45">0-9</text>
<line x1="473" y1="60" x2="474" y2="60" stroke="#000000" stroke-width="2" />
<line x1="446" y1="60" x2="473" y2="60" stroke="#000000" stroke-width="2" />
<line x1="502" y1="60" x2="478" y2="60" stroke="#000000" stroke-width="2" marker-end="url(#arrow)" />
<line x1="437" y1="39" x2="446" y2="39" stroke="#000000" stroke-width="2" />
<path d="M446,39 A10,10 0 0,0 446,59" stroke="#000000" stroke-width="2" fill="none"/>
<path d="M502,59 A10,10 0 0,0 502,39" stroke="#000000" stroke-width="2" fill="none"/>
<line x1="502" y1="39" x2="511" y2="39" stroke="#000000" stroke-width="2" />
<line x1="419" y1="39" x2="433" y2="39" stroke="#000000" stroke-width="2" marker-end="url(#arrow)" />
<line x1="357" y1="20" x2="444" y2="20" stroke="#000000" stroke-width="2" marker-end="url(#arrow)" />
<line x1="449" y1="20" x2="541" y2="20" stroke="#000000" stroke-width="2" />
<path d="M366,29 A9,9 0 0,0 357,20" stroke="#000000" stroke-width="2" fill="none"/>
<line x1="375" y1="39" x2="381" y2="39" stroke="#000000" stroke-width="2" marker-end="url(#arrow)" />
<line x1="511" y1="39" x2="522" y2="39" stroke="#000000" stroke-width="2" />
<path d="M366,30 A9,9 0 0,0 375,39" stroke="#000000" stroke-width="2" fill="none"/>
<path d="M522,39 A9,9 0 0,0 531,30" stroke="#000000" stroke-width="2" fill="none"/>
<path d="M540,20 A9,9 0 0,0 531,29" stroke="#000000" stroke-width="2" fill="none"/>
<line x1="366" y1="30" x2="366" y2="29" stroke="#000000" stroke-width="2" />
<line x1="531" y1="30" x2="531" y2="29" stroke="#000000" stroke-width="2" />
<line x1="339" y1="20" x2="353" y2="20" stroke="#000000" stroke-width="2" marker-end="url(#arrow)" />
<line x1="417" y1="130" x2="418" y2="130" stroke="#000000" stroke-width="2" />
<path d="M309,169 A16,16 0 0,1 309,137 H316 A16,16 0 0,1 316,169 z" fill="#000000" fill-opacity="0.4980392156862745" />
<path d="M306,166 A16,16 0 0,1 306,134 H313 A16,16 0 0,1 313,166 z" stroke="#000000" stroke-width="2" fill="#b3e5fc" fill-opacity="1.0" />
<text class="token_font" x="309" y="155">e</text>
<path d="M309,205 A16,16 0 0,1 309,173 H318 A16,16 0 0,1 318,205 z" fill="#000000" fill-opacity="0.4980392156862745" />
<path d="M306,202 A16,16 0 0,1 306,170 H315 A16,16 0 0,1 315,202 z" stroke="#000000" stroke-width="2" fill="#b3e5fc" fill-opacity="1.0" />
<text class="token_font" x="310" y="191">E</text>
<line x1="262" y1="149" x2="286" y2="149" stroke="#000000" stroke-width="2" marker-end="url(#arrow)" />
<line x1="329" y1="149" x2="360" y2="149" stroke="#000000" stroke-width="2" />
<path d="M271,158 A9,9 0 0,0 262,149" stroke="#000000" stroke-width="2" fill="none"/>
<line x1="280" y1="185" x2="286" y2="185" stroke="#000000" stroke-width="2" marker-end="url(#arrow)" />
<line x1="331" y1="185" x2="341" y2="185" stroke="#000000" stroke-width="2" />
<path d="M271,176 A9,9 0 0,0 280,185" stroke="#000000" stroke-width="2" fill="none"/>
<path d="M341,185 A9,9 0 0,0 350,176" stroke="#000000" stroke-width="2" fill="none"/>
<path d="M359,149 A9,9 0 0,0 350,158" stroke="#000000" stroke-width="2" fill="none"/>
<line x1="271" y1="176" x2="271" y2="158" stroke="#000000" stroke-width="2" />
<line x1="350" y1="176" x2="350" y2="158" stroke="#000000" stroke-width="2" />
<line x1="423" y1="149" x2="424" y2="149" stroke="#000000" stroke-width="2" />
<path d="M423,188 A16,16 0 0,1 423,156 H431 A16,16 0 0,1 431,188 z" fill="#000000" fill-opacity="0.4980392156862745" />
<path d="M420,185 A16,16 0 0,1 420,153 H428 A16,16 0 0,1 428,185 z" stroke="#000000" stroke-width="2" fill="#b3e5fc" fill-opacity="1.0" />
<text class="token_font" x="424" y="174">+</text>
<path d="M423,224 A16,16 0 0,1 423,192 H427 A16,16 0 0,1 427,224 z" fill="#000000" fill-opacity="0.4980392156862745" />
<path d="M420,221 A16,16 0 0,1 420,189 H424 A16,16 0 0,1 424,221 z" stroke="#000000" stroke-width="2" fill="#b3e5fc" fill-opacity="1.0" />
<text class="token_font" x="422" y="210">-</text>
<line x1="376" y1="149" x2="419" y2="149" stroke="#000000" stroke-width="2" marker-end="url(#arrow)" />
<line x1="424" y1="149" x2="473" y2="149" stroke="#000000" stroke-width="2" />
<path d="M385,158 A9,9 0 0,0 376,149" stroke="#000000" stroke-width="2" fill="none"/>
<line x1="394" y1="168" x2="400" y2="168" stroke="#000000" stroke-width="2" marker-end="url(#arrow)" />
<line x1="444" y1="168" x2="454" y2="168" stroke="#000000" stroke-width="2" />
<path d="M385,159 A9,9 0 0,0 394,168" stroke="#000000" stroke-width="2" fill="none"/>
<path d="M454,168 A9,9 0 0,0 463,159" stroke="#000000" stroke-width="2" fill="none"/>
<line x1="394" y1="204" x2="400" y2="204" stroke="#000000" stroke-width="2" marker-end="url(#arrow)" />
<line x1="440" y1="204" x2="454" y2="204" stroke="#000000" stroke-width="2" />
<path d="M385,195 A9,9 0 0,0 394,204" stroke="#000000" stroke-width="2" fill="none"/>
<path d="M454,204 A9,9 0 0,0 463,195" stroke="#000000" stroke-width="2" fill="none"/>
<path d="M472,149 A9,9 0 0,0 463,158" stroke="#000000" stroke-width="2" fill="none"/>
<line x1="385" y1="195" x2="385" y2="158" stroke="#000000" stroke-width="2" />
<line x1="463" y1="195" x2="463" y2="158" stroke="#000000" stroke-width="2" />
<line x1="358" y1="149" x2="372" y2="149" stroke="#000000" stroke-width="2" marker-end="url(#arrow)" />
<path d="M517,169 A16,16 0 0,1 517,137 H541 A16,16 0 0,1 541,169 z" fill="#000000" fill-opacity="0.4980392156862745" />
<path d="M514,166 A16,16 0 0,1 514,134 H538 A16,16 0 0,1 538,166 z" stroke="#000000" stroke-width="2" fill="#b3e5fc" fill-opacity="1.0" />
<text class="token_font" x="526" y="155">0-9</text>
<line x1="525" y1="170" x2="526" y2="170" stroke="#000000" stroke-width="2" />
<line x1="498" y1="170" x2="525" y2="170" stroke="#000000" stroke-width="2" />
<line x1="554" y1="170" x2="530" y2="170" stroke="#000000" stroke-width="2" marker-end="url(#arrow)" />
<line x1="489" y1="149" x2="498" y2="149" stroke="#000000" stroke-width="2" />
<path d="M498,149 A10,10 0 0,0 498,169" stroke="#000000" stroke-width="2" fill="none"/>
<path d="M554,169 A10,10 0 0,0 554,149" stroke="#000000" stroke-width="2" fill="none"/>
<line x1="554" y1="149" x2="563" y2="149" stroke="#000000" stroke-width="2" />
<line x1="471" y1="149" x2="485" y2="149" stroke="#000000" stroke-width="2" marker-end="url(#arrow)" />
<line x1="234" y1="130" x2="413" y2="130" stroke="#000000" stroke-width="2" marker-end="url(#arrow)" />
<line x1="418" y1="130" x2="602" y2="130" stroke="#000000" stroke-width="2" />
<path d="M243,139 A9,9 0 0,0 234,130" stroke="#000000" stroke-width="2" fill="none"/>
<line x1="252" y1="149" x2="258" y2="149" stroke="#000000" stroke-width="2" marker-end="url(#arrow)" />
<line x1="563" y1="149" x2="583" y2="149" stroke="#000000" stroke-width="2" />
<path d="M243,140 A9,9 0 0,0 252,149" stroke="#000000" stroke-width="2" fill="none"/>
<path d="M583,149 A9,9 0 0,0 592,140" stroke="#000000" stroke-width="2" fill="none"/>
<path d="M601,130 A9,9 0 0,0 592,139" stroke="#000000" stroke-width="2" fill="none"/>
<line x1="243" y1="140" x2="243" y2="139" stroke="#000000" stroke-width="2" />
<line x1="592" y1="140" x2="592" y2="139" stroke="#000000" stroke-width="2" />
<line x1="540" y1="20" x2="558" y2="20" stroke="#000000" stroke-width="2" />
<path d="M567,29 A9,9 0 0,0 558,20" stroke="#000000" stroke-width="2" fill="none"/>
<line x1="567" y1="29" x2="567" y2="61" stroke="#000000" stroke-width="2" marker-end="url(#arrow)" />
<line x1="567" y1="65" x2="567" y2="102" stroke="#000000" stroke-width="2" />
<path d="M558,111 A9,9 0 0,0 567,102" stroke="#000000" stroke-width="2" fill="none"/>
<line x1="558" y1="111" x2="391" y2="111" stroke="#000000" stroke-width="2" marker-end="url(#arrow)" />
<line x1="387" y1="111" x2="216" y2="111" stroke="#000000" stroke-width="2" />
<path d="M216,111 A9,9 0 0,0 216,129" stroke="#000000" stroke-width="2" fill="none"/>
<line x1="216" y1="130" x2="230" y2="130" stroke="#000000" stroke-width="2" marker-end="url(#arrow)" />
<line x1="10" y1="20" x2="24" y2="20" stroke="#000000" stroke-width="2" marker-end="url(#arrow)" />
<circle cx="621" cy="130" r="3" stroke="#000000" stroke-width="2" fill="#ffffff"/>
<line x1="600" y1="130" x2="614" y2="130" stroke="#000000" stroke-width="2" marker-end="url(#arrow)" />
</svg>
