<?xml version="1.0" encoding="UTF-8" standalone="no"?>
<!-- Created by Jyntrax https://github.com/atp-mipt/jsyntrax -->
<svg xmlns="http://www.w3.org/2000/svg"
xmlns:xlink="http://www.w3.org/1999/xlink"
xml:space="preserve"
width="291" height="78" version="1.1">
<style type="text/css">
<![CDATA[
.title_font {fill:#000000; text-anchor:middle;
font-family:Helvetica; font-size:16pt; font-weight:bold; font-style:normal; }
.token_font {fill:#000000; text-anchor:middle;
font-family:Helvetica; font-size:16pt; font-weight:bold; font-style:normal; }
.box_font {fill:#000000; text-anchor:middle;
font-family:Times; font-size:14pt; font-weight:normal; font-style:italic; }
.bubble_font {fill:#000000; text-anchor:middle;
font-family:Helvetica; font-size:14pt; font-weight:bold; font-style:normal; }
.label {fill: #000; text-anchor:middle; font-size:16pt; font-weight:bold; font-family:Sans;}
.link {fill: #0D47A1;}
.link:hover {fill: #0D47A1; text-decoration:underline;}
.link:visited {fill: #4A148C;}
]]>
</style>
<defs>
<marker id="arrow" markerWidth="5" markerHeight="4" refX="2.5" refY="2" orient="auto" markerUnits="strokeWidth">
<path d="M0,0 L0.5,2 L0,4 L4.5,2 z" fill="#000000" />
</marker>
</defs>
<circle cx="8" cy="56" r="3" stroke="#000000" stroke-width="2" fill="#ffffff"/>
<path d="M64,76 A16,16 0 0,1 64,44 H68 A16,16 0 0,1 68,76 z" fill="#000000" fill-opacity="0.4980392156862745" />
<path d="M61,73 A16,16 0 0,1 61,41 H65 A16,16 0 0,1 65,73 z" stroke="#000000" stroke-width="2" fill="#b3e5fc" fill-opacity="1.0" />
<text class="token_font" x="63" y="62">(</text>
<path d="M117,76 A16,16 0 0,1 117,44 H180 A16,16 0 0,1 180,76 z" fill="#000000" fill-opacity="0.4980392156862745" />
<path d="M114,73 A16,16 0 0,1 114,41 H177 A16,16 0 0,1 177,73 z" stroke="#000000" stroke-width="2" fill="#b3e5fc" fill-opacity="1.0" />
<text class="token_font" x="145" y="62">forward</text>
<line x1="80" y1="56" x2="94" y2="56" stroke="#000000" stroke-width="2" marker-end="url(#arrow)" />
<path d="M229,76 A16,16 0 0,1 229,44 H233 A16,16 0 0,1 233,76 z" fill="#000000" fill-opacity="0.4980392156862745" />
<path d="M226,73 A16,16 0 0,1 226,41 H230 A16,16 0 0,1 230,73 z" stroke="#000000" stroke-width="2" fill="#b3e5fc" fill-opacity="1.0" />
<text class="token_font" x="228" y="62">)</text>
<line x1="192" y1="56" x2="206" y2="56" stroke="#000000" stroke-width="2" marker-end="url(#arrow)" />
<path d="M56,40 A16,16 0 0,1 56,8 H60 A16,16 0 0,1 60,40 z" fill="#000000" fill-opacity="0.4980392156862745" />
<path d="M53,37 A16,16 0 0,1 53,5 H57 A16,16 0 0,1 57,37 z" stroke="#000000" stroke-width="2" fill="#b3e5fc" fill-opacity="1.0" />
<text class="token_font" x="55" y="26">(</text>
<path d="M109,40 A16,16 0 0,1 109,8 H188 A16,16 0 0,1 188,40 z" fill="#000000" fill-opacity="0.4980392156862745" />
<path d="M106,37 A16,16 0 0,1 106,5 H185 A16,16 0 0,1 185,37 z" stroke="#000000" stroke-width="2" fill="#b3e5fc" fill-opacity="1.0" />
<text class="token_font" x="145" y="26">backward</text>
<line x1="90" y1="20" x2="76" y2="20" stroke="#000000" stroke-width="2" marker-end="url(#arrow)" />
<path d="M237,40 A16,16 0 0,1 237,8 H241 A16,16 0 0,1 241,40 z" fill="#000000" fill-opacity="0.4980392156862745" />
<path d="M234,37 A16,16 0 0,1 234,5 H238 A16,16 0 0,1 238,37 z" stroke="#000000" stroke-width="2" fill="#b3e5fc" fill-opacity="1.0" />
<text class="token_font" x="236" y="26">)</text>
<line x1="218" y1="20" x2="204" y2="20" stroke="#000000" stroke-width="2" marker-end="url(#arrow)" />
<line x1="37" y1="56" x2="45" y2="56" stroke="#000000" stroke-width="2" />
<line x1="246" y1="56" x2="254" y2="56" stroke="#000000" stroke-width="2" />
<line x1="28" y1="56" x2="37" y2="56" stroke="#000000" stroke-width="2" />
<path d="M37,20 A9,9 0 0,0 28,29" stroke="#000000" stroke-width="2" fill="none"/>
<line x1="28" y1="29" x2="28" y2="47" stroke="#000000" stroke-width="2" />
<path d="M28,47 A9,9 0 0,0 37,56" stroke="#000000" stroke-width="2" fill="none"/>
<path d="M263,29 A9,9 0 0,0 254,20" stroke="#000000" stroke-width="2" fill="none"/>
<line x1="263" y1="29" x2="263" y2="47" stroke="#000000" stroke-width="2" />
<path d="M254,56 A9,9 0 0,0 263,47" stroke="#000000" stroke-width="2" fill="none"/>
<line x1="254" y1="56" x2="263" y2="56" stroke="#000000" stroke-width="2" />
<line x1="10" y1="56" x2="24" y2="56" stroke="#000000" stroke-width="2" marker-end="url(#arrow)" />
<circle cx="283" cy="56" r="3" stroke="#000000" stroke-width="2" fill="#ffffff"/>
<line x1="262" y1="56" x2="276" y2="56" stroke="#000000" stroke-width="2" marker-end="url(#arrow)" />
</svg>
