<?xml version="1.0" encoding="UTF-8" standalone="no"?>
<!-- Created by Jyntrax https://github.com/atp-mipt/jsyntrax -->
<svg xmlns="http://www.w3.org/2000/svg"
xmlns:xlink="http://www.w3.org/1999/xlink"
xml:space="preserve"
width="260" height="112" version="1.1">
<style type="text/css">
<![CDATA[
.title_font {fill:#000000; text-anchor:middle;
font-family:Helvetica; font-size:16pt; font-weight:bold; font-style:normal; }
.token_font {fill:#000000; text-anchor:middle;
font-family:Helvetica; font-size:16pt; font-weight:bold; font-style:normal; }
.box_font {fill:#000000; text-anchor:middle;
font-family:Times; font-size:14pt; font-weight:normal; font-style:italic; }
.bubble_font {fill:#000000; text-anchor:middle;
font-family:Helvetica; font-size:14pt; font-weight:bold; font-style:normal; }
.label {fill: #000; text-anchor:middle; font-size:16pt; font-weight:bold; font-family:Sans;}
.link {fill: #0D47A1;}
.link:hover {fill: #0D47A1; text-decoration:underline;}
.link:visited {fill: #4A148C;}
]]>
</style>
<defs>
<marker id="arrow" markerWidth="5" markerHeight="4" refX="2.5" refY="2" orient="auto" markerUnits="strokeWidth">
<path d="M0,0 L0.5,2 L0,4 L4.5,2 z" fill="#000000" />
</marker>
</defs>
<circle cx="8" cy="20" r="3" stroke="#000000" stroke-width="2" fill="#ffffff"/>
<path d="M47,40 A16,16 0 0,1 47,8 H72 A16,16 0 0,1 72,40 z" fill="#000000" fill-opacity="0.4980392156862745" />
<path d="M44,37 A16,16 0 0,1 44,5 H69 A16,16 0 0,1 69,37 z" stroke="#000000" stroke-width="2" fill="#b3e5fc" fill-opacity="1.0" />
<text class="token_font" x="56" y="26">top</text>
<path d="M121,40 A16,16 0 0,1 121,8 H150 A16,16 0 0,1 150,40 z" fill="#000000" fill-opacity="0.4980392156862745" />
<path d="M118,37 A16,16 0 0,1 118,5 H147 A16,16 0 0,1 147,37 z" stroke="#000000" stroke-width="2" fill="#b3e5fc" fill-opacity="1.0" />
<text class="token_font" x="132" y="26">line</text>
<line x1="84" y1="20" x2="98" y2="20" stroke="#000000" stroke-width="2" marker-end="url(#arrow)" />
<path d="M83,110 A16,16 0 0,1 83,78 H141 A16,16 0 0,1 141,110 z" fill="#000000" fill-opacity="0.4980392156862745" />
<path d="M80,107 A16,16 0 0,1 80,75 H138 A16,16 0 0,1 138,107 z" stroke="#000000" stroke-width="2" fill="#b3e5fc" fill-opacity="1.0" />
<text class="token_font" x="109" y="96">bottom</text>
<path d="M190,110 A16,16 0 0,1 190,78 H219 A16,16 0 0,1 219,110 z" fill="#000000" fill-opacity="0.4980392156862745" />
<path d="M187,107 A16,16 0 0,1 187,75 H216 A16,16 0 0,1 216,107 z" stroke="#000000" stroke-width="2" fill="#b3e5fc" fill-opacity="1.0" />
<text class="token_font" x="201" y="96">line</text>
<line x1="153" y1="90" x2="167" y2="90" stroke="#000000" stroke-width="2" marker-end="url(#arrow)" />
<line x1="163" y1="20" x2="181" y2="20" stroke="#000000" stroke-width="2" />
<path d="M190,29 A9,9 0 0,0 181,20" stroke="#000000" stroke-width="2" fill="none"/>
<line x1="190" y1="29" x2="190" y2="47" stroke="#000000" stroke-width="2" />
<path d="M181,56 A9,9 0 0,0 190,47" stroke="#000000" stroke-width="2" fill="none"/>
<line x1="181" y1="56" x2="117" y2="56" stroke="#000000" stroke-width="2" marker-end="url(#arrow)" />
<line x1="113" y1="56" x2="46" y2="56" stroke="#000000" stroke-width="2" />
<path d="M46,56 A9,9 0 0,0 37,65" stroke="#000000" stroke-width="2" fill="none"/>
<line x1="37" y1="65" x2="37" y2="81" stroke="#000000" stroke-width="2" />
<path d="M37,81 A9,9 0 0,0 46,90" stroke="#000000" stroke-width="2" fill="none"/>
<line x1="46" y1="90" x2="60" y2="90" stroke="#000000" stroke-width="2" marker-end="url(#arrow)" />
<line x1="10" y1="20" x2="24" y2="20" stroke="#000000" stroke-width="2" marker-end="url(#arrow)" />
<circle cx="252" cy="90" r="3" stroke="#000000" stroke-width="2" fill="#ffffff"/>
<line x1="231" y1="90" x2="245" y2="90" stroke="#000000" stroke-width="2" marker-end="url(#arrow)" />
</svg>
