<?xml version="1.0" encoding="UTF-8" standalone="no"?>
<!-- Created by Jyntrax https://github.com/atp-mipt/jsyntrax -->
<svg xmlns="http://www.w3.org/2000/svg"
xmlns:xlink="http://www.w3.org/1999/xlink"
xml:space="preserve"
width="269" height="78" version="1.1">
<style type="text/css">
<![CDATA[
.title_font {fill:#000000; text-anchor:middle;
font-family:Helvetica; font-size:16pt; font-weight:bold; font-style:normal; }
.token_font {fill:#000000; text-anchor:middle;
font-family:Helvetica; font-size:16pt; font-weight:bold; font-style:normal; }
.box_font {fill:#000000; text-anchor:middle;
font-family:Times; font-size:14pt; font-weight:normal; font-style:italic; }
.bubble_font {fill:#000000; text-anchor:middle;
font-family:Helvetica; font-size:14pt; font-weight:bold; font-style:normal; }
.label {fill: #000; text-anchor:middle; font-size:16pt; font-weight:bold; font-family:Sans;}
.link {fill: #0D47A1;}
.link:hover {fill: #0D47A1; text-decoration:underline;}
.link:visited {fill: #4A148C;}
]]>
</style>
<defs>
<marker id="arrow" markerWidth="5" markerHeight="4" refX="2.5" refY="2" orient="auto" markerUnits="strokeWidth">
<path d="M0,0 L0.5,2 L0,4 L4.5,2 z" fill="#000000" />
</marker>
</defs>
<circle cx="8" cy="20" r="3" stroke="#000000" stroke-width="2" fill="#ffffff"/>
<rect x="56" y="11" width="78" height="28" fill="#000000" fill-opacity="0.4980392156862745" />
<rect x="53" y="8" width="78" height="28" stroke="#000000" stroke-width="2" fill="#90a4ae" fill-opacity="1.0" />
<text class="box_font" x="92" y="27">/forward</text>
<path d="M167,40 A16,16 0 0,1 167,8 H202 A16,16 0 0,1 202,40 z" fill="#000000" fill-opacity="0.4980392156862745" />
<path d="M164,37 A16,16 0 0,1 164,5 H199 A16,16 0 0,1 199,37 z" stroke="#000000" stroke-width="2" fill="#b3e5fc" fill-opacity="1.0" />
<text class="token_font" x="181" y="26">path</text>
<line x1="130" y1="20" x2="144" y2="20" stroke="#000000" stroke-width="2" marker-end="url(#arrow)" />
<path d="M56,76 A16,16 0 0,1 56,44 H91 A16,16 0 0,1 91,76 z" fill="#000000" fill-opacity="0.4980392156862745" />
<path d="M53,73 A16,16 0 0,1 53,41 H88 A16,16 0 0,1 88,73 z" stroke="#000000" stroke-width="2" fill="#b3e5fc" fill-opacity="1.0" />
<text class="token_font" x="70" y="62">path</text>
<path d="M140,76 A16,16 0 0,1 140,44 H219 A16,16 0 0,1 219,76 z" fill="#000000" fill-opacity="0.4980392156862745" />
<path d="M137,73 A16,16 0 0,1 137,41 H216 A16,16 0 0,1 216,73 z" stroke="#000000" stroke-width="2" fill="#b3e5fc" fill-opacity="1.0" />
<text class="token_font" x="176" y="62">backward</text>
<line x1="121" y1="56" x2="107" y2="56" stroke="#000000" stroke-width="2" marker-end="url(#arrow)" />
<line x1="37" y1="20" x2="49" y2="20" stroke="#000000" stroke-width="2" marker-end="url(#arrow)" />
<line x1="215" y1="20" x2="232" y2="20" stroke="#000000" stroke-width="2" />
<line x1="28" y1="20" x2="37" y2="20" stroke="#000000" stroke-width="2" />
<path d="M37,20 A9,9 0 0,0 28,29" stroke="#000000" stroke-width="2" fill="none"/>
<line x1="28" y1="29" x2="28" y2="47" stroke="#000000" stroke-width="2" />
<path d="M28,47 A9,9 0 0,0 37,56" stroke="#000000" stroke-width="2" fill="none"/>
<path d="M241,29 A9,9 0 0,0 232,20" stroke="#000000" stroke-width="2" fill="none"/>
<line x1="241" y1="29" x2="241" y2="47" stroke="#000000" stroke-width="2" />
<path d="M232,56 A9,9 0 0,0 241,47" stroke="#000000" stroke-width="2" fill="none"/>
<line x1="232" y1="20" x2="241" y2="20" stroke="#000000" stroke-width="2" />
<line x1="10" y1="20" x2="24" y2="20" stroke="#000000" stroke-width="2" marker-end="url(#arrow)" />
<circle cx="261" cy="20" r="3" stroke="#000000" stroke-width="2" fill="#ffffff"/>
<line x1="240" y1="20" x2="254" y2="20" stroke="#000000" stroke-width="2" marker-end="url(#arrow)" />
</svg>
