<?xml version="1.0" encoding="UTF-8" standalone="no"?>
<!-- Created by Jyntrax https://github.com/atp-mipt/jsyntrax -->
<svg xmlns="http://www.w3.org/2000/svg"
xmlns:xlink="http://www.w3.org/1999/xlink"
xml:space="preserve"
width="252" height="46" version="1.1">
<style type="text/css">
<![CDATA[
.title_font {fill:#000000; text-anchor:middle;
font-family:Helvetica; font-size:16pt; font-weight:bold; font-style:normal; }
.token_font {fill:#000000; text-anchor:middle;
font-family:Helvetica; font-size:16pt; font-weight:bold; font-style:normal; }
.box_font {fill:#000000; text-anchor:middle;
font-family:Times; font-size:14pt; font-weight:normal; font-style:italic; }
.bubble_font {fill:#000000; text-anchor:middle;
font-family:Helvetica; font-size:14pt; font-weight:bold; font-style:normal; }
.label {fill: #000; text-anchor:middle; font-size:16pt; font-weight:bold; font-family:Sans;}
.link {fill: #0D47A1;}
.link:hover {fill: #0D47A1; text-decoration:underline;}
.link:visited {fill: #4A148C;}
]]>
</style>
<defs>
<marker id="arrow" markerWidth="5" markerHeight="4" refX="2.5" refY="2" orient="auto" markerUnits="strokeWidth">
<path d="M0,0 L0.5,2 L0,4 L4.5,2 z" fill="#000000" />
</marker>
</defs>
<circle cx="8" cy="20" r="3" stroke="#000000" stroke-width="2" fill="#ffffff"/>
<path d="M65,40 A16,16 0 0,1 65,8 H75 A16,16 0 0,1 75,40 z" fill="#000000" fill-opacity="0.4980392156862745" />
<path d="M62,37 A16,16 0 0,1 62,5 H72 A16,16 0 0,1 72,37 z" stroke="#000000" stroke-width="2" fill="#b3e5fc" fill-opacity="1.0" />
<text class="token_font" x="67" y="26">A</text>
<path d="M124,40 A16,16 0 0,1 124,8 H134 A16,16 0 0,1 134,40 z" fill="#000000" fill-opacity="0.4980392156862745" />
<path d="M121,37 A16,16 0 0,1 121,5 H131 A16,16 0 0,1 131,37 z" stroke="#000000" stroke-width="2" fill="#b3e5fc" fill-opacity="1.0" />
<text class="token_font" x="126" y="26">B</text>
<line x1="87" y1="20" x2="101" y2="20" stroke="#000000" stroke-width="2" marker-end="url(#arrow)" />
<path d="M183,40 A16,16 0 0,1 183,8 H193 A16,16 0 0,1 193,40 z" fill="#000000" fill-opacity="0.4980392156862745" />
<path d="M180,37 A16,16 0 0,1 180,5 H190 A16,16 0 0,1 190,37 z" stroke="#000000" stroke-width="2" fill="#b3e5fc" fill-opacity="1.0" />
<text class="token_font" x="185" y="26">C</text>
<line x1="146" y1="20" x2="160" y2="20" stroke="#000000" stroke-width="2" marker-end="url(#arrow)" />
<line x1="125" y1="41" x2="126" y2="41" stroke="#000000" stroke-width="2" />
<line x1="28" y1="20" x2="46" y2="20" stroke="#000000" stroke-width="2" />
<line x1="206" y1="20" x2="225" y2="20" stroke="#000000" stroke-width="2" />
<path d="M37,29 A9,9 0 0,0 28,20" stroke="#000000" stroke-width="2" fill="none"/>
<line x1="46" y1="41" x2="121" y2="41" stroke="#000000" stroke-width="2" marker-end="url(#arrow)" />
<line x1="126" y1="41" x2="206" y2="41" stroke="#000000" stroke-width="2" />
<path d="M37,32 A9,9 0 0,0 46,41" stroke="#000000" stroke-width="2" fill="none"/>
<path d="M206,41 A9,9 0 0,0 215,32" stroke="#000000" stroke-width="2" fill="none"/>
<path d="M224,20 A9,9 0 0,0 215,29" stroke="#000000" stroke-width="2" fill="none"/>
<line x1="37" y1="32" x2="37" y2="29" stroke="#000000" stroke-width="2" />
<line x1="215" y1="32" x2="215" y2="29" stroke="#000000" stroke-width="2" />
<line x1="10" y1="20" x2="24" y2="20" stroke="#000000" stroke-width="2" marker-end="url(#arrow)" />
<circle cx="244" cy="20" r="3" stroke="#000000" stroke-width="2" fill="#ffffff"/>
<line x1="223" y1="20" x2="237" y2="20" stroke="#000000" stroke-width="2" marker-end="url(#arrow)" />
</svg>
