<?xml version="1.0" encoding="UTF-8" standalone="no"?>
<!-- Created by Jyntrax https://github.com/atp-mipt/jsyntrax -->
<svg xmlns="http://www.w3.org/2000/svg"
xmlns:xlink="http://www.w3.org/1999/xlink"
xml:space="preserve"
width="455" height="112" version="1.1">
<style type="text/css">
<![CDATA[
.title_font {fill:#000000; text-anchor:middle;
font-family:Helvetica; font-size:16pt; font-weight:bold; font-style:normal; }
.token_font {fill:#000000; text-anchor:middle;
font-family:Helvetica; font-size:16pt; font-weight:bold; font-style:normal; }
.box_font {fill:#000000; text-anchor:middle;
font-family:Times; font-size:14pt; font-weight:normal; font-style:italic; }
.bubble_font {fill:#000000; text-anchor:middle;
font-family:Helvetica; font-size:14pt; font-weight:bold; font-style:normal; }
.label {fill: #000; text-anchor:middle; font-size:16pt; font-weight:bold; font-family:Sans;}
.link {fill: #0D47A1;}
.link:hover {fill: #0D47A1; text-decoration:underline;}
.link:visited {fill: #4A148C;}
]]>
</style>
<defs>
<marker id="arrow" markerWidth="5" markerHeight="4" refX="2.5" refY="2" orient="auto" markerUnits="strokeWidth">
<path d="M0,0 L0.5,2 L0,4 L4.5,2 z" fill="#000000" />
</marker>
</defs>
<circle cx="8" cy="20" r="3" stroke="#000000" stroke-width="2" fill="#ffffff"/>
<path d="M47,40 A16,16 0 0,1 47,8 H72 A16,16 0 0,1 72,40 z" fill="#000000" fill-opacity="0.4980392156862745" />
<path d="M44,37 A16,16 0 0,1 44,5 H69 A16,16 0 0,1 69,37 z" stroke="#000000" stroke-width="2" fill="#b3e5fc" fill-opacity="1.0" />
<text class="token_font" x="56" y="26">top</text>
<path d="M121,40 A16,16 0 0,1 121,8 H150 A16,16 0 0,1 150,40 z" fill="#000000" fill-opacity="0.4980392156862745" />
<path d="M118,37 A16,16 0 0,1 118,5 H147 A16,16 0 0,1 147,37 z" stroke="#000000" stroke-width="2" fill="#b3e5fc" fill-opacity="1.0" />
<text class="token_font" x="132" y="26">line</text>
<line x1="84" y1="20" x2="98" y2="20" stroke="#000000" stroke-width="2" marker-end="url(#arrow)" />
<path d="M199,40 A16,16 0 0,1 199,8 H232 A16,16 0 0,1 232,40 z" fill="#000000" fill-opacity="0.4980392156862745" />
<path d="M196,37 A16,16 0 0,1 196,5 H229 A16,16 0 0,1 229,37 z" stroke="#000000" stroke-width="2" fill="#b3e5fc" fill-opacity="1.0" />
<text class="token_font" x="212" y="26">with</text>
<line x1="162" y1="20" x2="176" y2="20" stroke="#000000" stroke-width="2" marker-end="url(#arrow)" />
<path d="M281,40 A16,16 0 0,1 281,8 H322 A16,16 0 0,1 322,40 z" fill="#000000" fill-opacity="0.4980392156862745" />
<path d="M278,37 A16,16 0 0,1 278,5 H319 A16,16 0 0,1 319,37 z" stroke="#000000" stroke-width="2" fill="#b3e5fc" fill-opacity="1.0" />
<text class="token_font" x="298" y="26">more</text>
<line x1="244" y1="20" x2="258" y2="20" stroke="#000000" stroke-width="2" marker-end="url(#arrow)" />
<path d="M371,40 A16,16 0 0,1 371,8 H410 A16,16 0 0,1 410,40 z" fill="#000000" fill-opacity="0.4980392156862745" />
<path d="M368,37 A16,16 0 0,1 368,5 H407 A16,16 0 0,1 407,37 z" stroke="#000000" stroke-width="2" fill="#b3e5fc" fill-opacity="1.0" />
<text class="token_font" x="387" y="26">code</text>
<line x1="334" y1="20" x2="348" y2="20" stroke="#000000" stroke-width="2" marker-end="url(#arrow)" />
<path d="M256,110 A16,16 0 0,1 256,78 H314 A16,16 0 0,1 314,110 z" fill="#000000" fill-opacity="0.4980392156862745" />
<path d="M253,107 A16,16 0 0,1 253,75 H311 A16,16 0 0,1 311,107 z" stroke="#000000" stroke-width="2" fill="#b3e5fc" fill-opacity="1.0" />
<text class="token_font" x="282" y="96">bottom</text>
<path d="M363,110 A16,16 0 0,1 363,78 H392 A16,16 0 0,1 392,110 z" fill="#000000" fill-opacity="0.4980392156862745" />
<path d="M360,107 A16,16 0 0,1 360,75 H389 A16,16 0 0,1 389,107 z" stroke="#000000" stroke-width="2" fill="#b3e5fc" fill-opacity="1.0" />
<text class="token_font" x="374" y="96">line</text>
<line x1="326" y1="90" x2="340" y2="90" stroke="#000000" stroke-width="2" marker-end="url(#arrow)" />
<line x1="423" y1="20" x2="441" y2="20" stroke="#000000" stroke-width="2" />
<path d="M450,29 A9,9 0 0,0 441,20" stroke="#000000" stroke-width="2" fill="none"/>
<line x1="450" y1="29" x2="450" y2="47" stroke="#000000" stroke-width="2" />
<path d="M441,56 A9,9 0 0,0 450,47" stroke="#000000" stroke-width="2" fill="none"/>
<line x1="441" y1="56" x2="334" y2="56" stroke="#000000" stroke-width="2" marker-end="url(#arrow)" />
<line x1="330" y1="56" x2="219" y2="56" stroke="#000000" stroke-width="2" />
<path d="M219,56 A9,9 0 0,0 210,65" stroke="#000000" stroke-width="2" fill="none"/>
<line x1="210" y1="65" x2="210" y2="81" stroke="#000000" stroke-width="2" />
<path d="M210,81 A9,9 0 0,0 219,90" stroke="#000000" stroke-width="2" fill="none"/>
<line x1="219" y1="90" x2="233" y2="90" stroke="#000000" stroke-width="2" marker-end="url(#arrow)" />
<line x1="10" y1="20" x2="24" y2="20" stroke="#000000" stroke-width="2" marker-end="url(#arrow)" />
<circle cx="425" cy="90" r="3" stroke="#000000" stroke-width="2" fill="#ffffff"/>
<line x1="404" y1="90" x2="418" y2="90" stroke="#000000" stroke-width="2" marker-end="url(#arrow)" />
</svg>
