<?xml version="1.0" encoding="UTF-8" standalone="no"?>
<!-- Created by Jyntrax https://github.com/atp-mipt/jsyntrax -->
<svg xmlns="http://www.w3.org/2000/svg"
xmlns:xlink="http://www.w3.org/1999/xlink"
xml:space="preserve"
width="272" height="49" version="1.1">
<style type="text/css">
<![CDATA[
.title_font {fill:#000000; text-anchor:middle;
font-family:Helvetica; font-size:16pt; font-weight:bold; font-style:normal; }
.token_font {fill:#000000; text-anchor:middle;
font-family:Helvetica; font-size:16pt; font-weight:bold; font-style:normal; }
.box_font {fill:#000000; text-anchor:middle;
font-family:Times; font-size:14pt; font-weight:normal; font-style:italic; }
.bubble_font {fill:#000000; text-anchor:middle;
font-family:Helvetica; font-size:14pt; font-weight:bold; font-style:normal; }
.label {fill: #000; text-anchor:middle; font-size:16pt; font-weight:bold; font-family:Sans;}
.link {fill: #0D47A1;}
.link:hover {fill: #0D47A1; text-decoration:underline;}
.link:visited {fill: #4A148C;}
]]>
</style>
<defs>
<marker id="arrow" markerWidth="5" markerHeight="4" refX="2.5" refY="2" orient="auto" markerUnits="strokeWidth">
<path d="M0,0 L0.5,2 L0,4 L4.5,2 z" fill="#000000" />
</marker>
</defs>
<circle cx="8" cy="8" r="3" stroke="#000000" stroke-width="2" fill="#ffffff"/>
<line x1="135" y1="8" x2="136" y2="8" stroke="#000000" stroke-width="2" />
<path d="M75,47 A16,16 0 0,1 75,15 H85 A16,16 0 0,1 85,47 z" fill="#000000" fill-opacity="0.4980392156862745" />
<path d="M72,44 A16,16 0 0,1 72,12 H82 A16,16 0 0,1 82,44 z" stroke="#000000" stroke-width="2" fill="#b3e5fc" fill-opacity="1.0" />
<text class="token_font" x="77" y="33">A</text>
<path d="M134,47 A16,16 0 0,1 134,15 H144 A16,16 0 0,1 144,47 z" fill="#000000" fill-opacity="0.4980392156862745" />
<path d="M131,44 A16,16 0 0,1 131,12 H141 A16,16 0 0,1 141,44 z" stroke="#000000" stroke-width="2" fill="#b3e5fc" fill-opacity="1.0" />
<text class="token_font" x="136" y="33">B</text>
<line x1="97" y1="27" x2="111" y2="27" stroke="#000000" stroke-width="2" marker-end="url(#arrow)" />
<path d="M193,47 A16,16 0 0,1 193,15 H203 A16,16 0 0,1 203,47 z" fill="#000000" fill-opacity="0.4980392156862745" />
<path d="M190,44 A16,16 0 0,1 190,12 H200 A16,16 0 0,1 200,44 z" stroke="#000000" stroke-width="2" fill="#b3e5fc" fill-opacity="1.0" />
<text class="token_font" x="195" y="33">C</text>
<line x1="156" y1="27" x2="170" y2="27" stroke="#000000" stroke-width="2" marker-end="url(#arrow)" />
<line x1="28" y1="8" x2="131" y2="8" stroke="#000000" stroke-width="2" marker-end="url(#arrow)" />
<line x1="136" y1="8" x2="245" y2="8" stroke="#000000" stroke-width="2" />
<path d="M37,17 A9,9 0 0,0 28,8" stroke="#000000" stroke-width="2" fill="none"/>
<line x1="46" y1="27" x2="52" y2="27" stroke="#000000" stroke-width="2" marker-end="url(#arrow)" />
<line x1="216" y1="27" x2="226" y2="27" stroke="#000000" stroke-width="2" />
<path d="M37,18 A9,9 0 0,0 46,27" stroke="#000000" stroke-width="2" fill="none"/>
<path d="M226,27 A9,9 0 0,0 235,18" stroke="#000000" stroke-width="2" fill="none"/>
<path d="M244,8 A9,9 0 0,0 235,17" stroke="#000000" stroke-width="2" fill="none"/>
<line x1="37" y1="18" x2="37" y2="17" stroke="#000000" stroke-width="2" />
<line x1="235" y1="18" x2="235" y2="17" stroke="#000000" stroke-width="2" />
<line x1="10" y1="8" x2="24" y2="8" stroke="#000000" stroke-width="2" marker-end="url(#arrow)" />
<circle cx="264" cy="8" r="3" stroke="#000000" stroke-width="2" fill="#ffffff"/>
<line x1="243" y1="8" x2="257" y2="8" stroke="#000000" stroke-width="2" marker-end="url(#arrow)" />
</svg>
