<?xml version="1.0" encoding="UTF-8" standalone="no"?>
<!-- Created by Jyntrax https://github.com/atp-mipt/jsyntrax -->
<svg xmlns="http://www.w3.org/2000/svg"
xmlns:xlink="http://www.w3.org/1999/xlink"
xml:space="preserve"
width="154" height="114" version="1.1">
<style type="text/css">
<![CDATA[
.title_font {fill:#000000; text-anchor:middle;
font-family:Helvetica; font-size:16pt; font-weight:bold; font-style:normal; }
.token_font {fill:#000000; text-anchor:middle;
font-family:Helvetica; font-size:16pt; font-weight:bold; font-style:normal; }
.box_font {fill:#000000; text-anchor:middle;
font-family:Times; font-size:14pt; font-weight:normal; font-style:italic; }
.bubble_font {fill:#000000; text-anchor:middle;
font-family:Helvetica; font-size:14pt; font-weight:bold; font-style:normal; }
.label {fill: #000; text-anchor:middle; font-size:16pt; font-weight:bold; font-family:Sans;}
.link {fill: #0D47A1;}
.link:hover {fill: #0D47A1; text-decoration:underline;}
.link:visited {fill: #4A148C;}
]]>
</style>
<defs>
<marker id="arrow" markerWidth="5" markerHeight="4" refX="2.5" refY="2" orient="auto" markerUnits="strokeWidth">
<path d="M0,0 L0.5,2 L0,4 L4.5,2 z" fill="#000000" />
</marker>
</defs>
<circle cx="8" cy="20" r="3" stroke="#000000" stroke-width="2" fill="#ffffff"/>
<path d="M75,40 A16,16 0 0,1 75,8 H85 A16,16 0 0,1 85,40 z" fill="#000000" fill-opacity="0.4980392156862745" />
<path d="M72,37 A16,16 0 0,1 72,5 H82 A16,16 0 0,1 82,37 z" stroke="#000000" stroke-width="2" fill="#b3e5fc" fill-opacity="1.0" />
<text class="token_font" x="77" y="26">A</text>
<path d="M75,76 A16,16 0 0,1 75,44 H85 A16,16 0 0,1 85,76 z" fill="#000000" fill-opacity="0.4980392156862745" />
<path d="M72,73 A16,16 0 0,1 72,41 H82 A16,16 0 0,1 82,73 z" stroke="#000000" stroke-width="2" fill="#b3e5fc" fill-opacity="1.0" />
<text class="token_font" x="77" y="62">B</text>
<path d="M75,112 A16,16 0 0,1 75,80 H85 A16,16 0 0,1 85,112 z" fill="#000000" fill-opacity="0.4980392156862745" />
<path d="M72,109 A16,16 0 0,1 72,77 H82 A16,16 0 0,1 82,109 z" stroke="#000000" stroke-width="2" fill="#b3e5fc" fill-opacity="1.0" />
<text class="token_font" x="77" y="98">C</text>
<line x1="28" y1="20" x2="52" y2="20" stroke="#000000" stroke-width="2" marker-end="url(#arrow)" />
<line x1="98" y1="20" x2="127" y2="20" stroke="#000000" stroke-width="2" />
<path d="M37,29 A9,9 0 0,0 28,20" stroke="#000000" stroke-width="2" fill="none"/>
<line x1="46" y1="56" x2="52" y2="56" stroke="#000000" stroke-width="2" marker-end="url(#arrow)" />
<line x1="98" y1="56" x2="108" y2="56" stroke="#000000" stroke-width="2" />
<path d="M37,47 A9,9 0 0,0 46,56" stroke="#000000" stroke-width="2" fill="none"/>
<path d="M108,56 A9,9 0 0,0 117,47" stroke="#000000" stroke-width="2" fill="none"/>
<line x1="46" y1="92" x2="52" y2="92" stroke="#000000" stroke-width="2" marker-end="url(#arrow)" />
<line x1="98" y1="92" x2="108" y2="92" stroke="#000000" stroke-width="2" />
<path d="M37,83 A9,9 0 0,0 46,92" stroke="#000000" stroke-width="2" fill="none"/>
<path d="M108,92 A9,9 0 0,0 117,83" stroke="#000000" stroke-width="2" fill="none"/>
<path d="M126,20 A9,9 0 0,0 117,29" stroke="#000000" stroke-width="2" fill="none"/>
<line x1="37" y1="83" x2="37" y2="29" stroke="#000000" stroke-width="2" />
<line x1="117" y1="83" x2="117" y2="29" stroke="#000000" stroke-width="2" />
<line x1="10" y1="20" x2="24" y2="20" stroke="#000000" stroke-width="2" marker-end="url(#arrow)" />
<circle cx="146" cy="20" r="3" stroke="#000000" stroke-width="2" fill="#ffffff"/>
<line x1="125" y1="20" x2="139" y2="20" stroke="#000000" stroke-width="2" marker-end="url(#arrow)" />
</svg>
