<?xml version="1.0" encoding="UTF-8" standalone="no"?>
<!-- Created by Jyntrax https://github.com/atp-mipt/jsyntrax -->
<svg xmlns="http://www.w3.org/2000/svg"
xmlns:xlink="http://www.w3.org/1999/xlink"
xml:space="preserve"
width="336" height="42" version="1.1">
<style type="text/css">
<![CDATA[
.title_font {fill:#000000; text-anchor:middle;
font-family:Helvetica; font-size:16pt; font-weight:bold; font-style:normal; }
.token_font {fill:#000000; text-anchor:middle;
font-family:Helvetica; font-size:16pt; font-weight:bold; font-style:normal; }
.box_font {fill:#000000; text-anchor:middle;
font-family:Times; font-size:14pt; font-weight:normal; font-style:italic; }
.bubble_font {fill:#000000; text-anchor:middle;
font-family:Helvetica; font-size:14pt; font-weight:bold; font-style:normal; }
.label {fill: #000; text-anchor:middle; font-size:16pt; font-weight:bold; font-family:Sans;}
.link {fill: #0D47A1;}
.link:hover {fill: #0D47A1; text-decoration:underline;}
.link:visited {fill: #4A148C;}
]]>
</style>
<defs>
<marker id="arrow" markerWidth="5" markerHeight="4" refX="2.5" refY="2" orient="auto" markerUnits="strokeWidth">
<path d="M0,0 L0.5,2 L0,4 L4.5,2 z" fill="#000000" />
</marker>
</defs>
<circle cx="8" cy="20" r="3" stroke="#000000" stroke-width="2" fill="#ffffff"/>
<path d="M47,40 A16,16 0 0,1 47,8 H51 A16,16 0 0,1 51,40 z" fill="#000000" fill-opacity="0.4980392156862745" />
<path d="M44,37 A16,16 0 0,1 44,5 H48 A16,16 0 0,1 48,37 z" stroke="#000000" stroke-width="2" fill="#b3e5fc" fill-opacity="1.0" />
<text class="token_font" x="46" y="26">[</text>
<path d="M100,40 A16,16 0 0,1 100,8 H125 A16,16 0 0,1 125,40 z" fill="#000000" fill-opacity="0.4980392156862745" />
<path d="M97,37 A16,16 0 0,1 97,5 H122 A16,16 0 0,1 122,37 z" stroke="#000000" stroke-width="2" fill="#b3e5fc" fill-opacity="1.0" />
<text class="token_font" x="109" y="26">foo</text>
<line x1="63" y1="20" x2="77" y2="20" stroke="#000000" stroke-width="2" marker-end="url(#arrow)" />
<path d="M174,40 A16,16 0 0,1 174,8 H177 A16,16 0 0,1 177,40 z" fill="#000000" fill-opacity="0.4980392156862745" />
<path d="M171,37 A16,16 0 0,1 171,5 H174 A16,16 0 0,1 174,37 z" stroke="#000000" stroke-width="2" fill="#b3e5fc" fill-opacity="1.0" />
<text class="token_font" x="172" y="26">,</text>
<line x1="137" y1="20" x2="151" y2="20" stroke="#000000" stroke-width="2" marker-end="url(#arrow)" />
<rect x="210" y="11" width="48" height="28" fill="#000000" fill-opacity="0.4980392156862745" />
<rect x="207" y="8" width="48" height="28" stroke="#000000" stroke-width="2" fill="#90a4ae" fill-opacity="1.0" />
<text class="box_font" x="231" y="27">/bar</text>
<line x1="189" y1="20" x2="203" y2="20" stroke="#000000" stroke-width="2" marker-end="url(#arrow)" />
<path d="M291,40 A16,16 0 0,1 291,8 H295 A16,16 0 0,1 295,40 z" fill="#000000" fill-opacity="0.4980392156862745" />
<path d="M288,37 A16,16 0 0,1 288,5 H292 A16,16 0 0,1 292,37 z" stroke="#000000" stroke-width="2" fill="#b3e5fc" fill-opacity="1.0" />
<text class="token_font" x="290" y="26">]</text>
<line x1="254" y1="20" x2="268" y2="20" stroke="#000000" stroke-width="2" marker-end="url(#arrow)" />
<line x1="10" y1="20" x2="24" y2="20" stroke="#000000" stroke-width="2" marker-end="url(#arrow)" />
<circle cx="328" cy="20" r="3" stroke="#000000" stroke-width="2" fill="#ffffff"/>
<line x1="307" y1="20" x2="321" y2="20" stroke="#000000" stroke-width="2" marker-end="url(#arrow)" />
</svg>
