<?xml version="1.0" encoding="UTF-8" standalone="no"?>
<!-- Created by Jyntrax https://github.com/atp-mipt/jsyntrax -->
<svg xmlns="http://www.w3.org/2000/svg"
xmlns:xlink="http://www.w3.org/1999/xlink"
xml:space="preserve"
width="169" height="46" version="1.1">
<style type="text/css">
<![CDATA[
.title_font {fill:#000000; text-anchor:middle;
font-family:Helvetica; font-size:16pt; font-weight:bold; font-style:normal; }
.token_font {fill:#000000; text-anchor:middle;
font-family:Helvetica; font-size:16pt; font-weight:bold; font-style:normal; }
.box_font {fill:#000000; text-anchor:middle;
font-family:Times; font-size:14pt; font-weight:normal; font-style:italic; }
.bubble_font {fill:#000000; text-anchor:middle;
font-family:Helvetica; font-size:14pt; font-weight:bold; font-style:normal; }
.label {fill: #000; text-anchor:middle; font-size:16pt; font-weight:bold; font-family:Sans;}
.link {fill: #0D47A1;}
.link:hover {fill: #0D47A1; text-decoration:underline;}
.link:visited {fill: #4A148C;}
]]>
</style>
<defs>
<marker id="arrow" markerWidth="5" markerHeight="4" refX="2.5" refY="2" orient="auto" markerUnits="strokeWidth">
<path d="M0,0 L0.5,2 L0,4 L4.5,2 z" fill="#000000" />
</marker>
</defs>
<circle cx="8" cy="20" r="3" stroke="#000000" stroke-width="2" fill="#ffffff"/>
<path d="M56,40 A16,16 0 0,1 56,8 H119 A16,16 0 0,1 119,40 z" fill="#000000" fill-opacity="0.4980392156862745" />
<path d="M53,37 A16,16 0 0,1 53,5 H116 A16,16 0 0,1 116,37 z" stroke="#000000" stroke-width="2" fill="#b3e5fc" fill-opacity="1.0" />
<text class="token_font" x="84" y="26">forward</text>
<line x1="84" y1="41" x2="85" y2="41" stroke="#000000" stroke-width="2" />
<line x1="37" y1="41" x2="84" y2="41" stroke="#000000" stroke-width="2" />
<line x1="132" y1="41" x2="89" y2="41" stroke="#000000" stroke-width="2" marker-end="url(#arrow)" />
<line x1="28" y1="20" x2="37" y2="20" stroke="#000000" stroke-width="2" />
<path d="M37,20 A10,10 0 0,0 37,40" stroke="#000000" stroke-width="2" fill="none"/>
<path d="M132,40 A10,10 0 0,0 132,20" stroke="#000000" stroke-width="2" fill="none"/>
<line x1="132" y1="20" x2="141" y2="20" stroke="#000000" stroke-width="2" />
<line x1="10" y1="20" x2="24" y2="20" stroke="#000000" stroke-width="2" marker-end="url(#arrow)" />
<circle cx="161" cy="20" r="3" stroke="#000000" stroke-width="2" fill="#ffffff"/>
<line x1="140" y1="20" x2="154" y2="20" stroke="#000000" stroke-width="2" marker-end="url(#arrow)" />
</svg>
