<?xml version="1.0" encoding="UTF-8" standalone="no"?>
<!-- Created by Jyntrax https://github.com/atp-mipt/jsyntrax -->
<svg xmlns="http://www.w3.org/2000/svg"
xmlns:xlink="http://www.w3.org/1999/xlink"
xml:space="preserve"
width="187" height="182" version="1.1">
<style type="text/css">
<![CDATA[
.title_font {fill:#000000; text-anchor:middle;
font-family:Helvetica; font-size:16pt; font-weight:bold; font-style:normal; }
.token_font {fill:#000000; text-anchor:middle;
font-family:Helvetica; font-size:16pt; font-weight:bold; font-style:normal; }
.box_font {fill:#000000; text-anchor:middle;
font-family:Times; font-size:14pt; font-weight:normal; font-style:italic; }
.bubble_font {fill:#000000; text-anchor:middle;
font-family:Helvetica; font-size:14pt; font-weight:bold; font-style:normal; }
.label {fill: #000; text-anchor:middle; font-size:16pt; font-weight:bold; font-family:Sans;}
.link {fill: #0D47A1;}
.link:hover {fill: #0D47A1; text-decoration:underline;}
.link:visited {fill: #4A148C;}
]]>
</style>
<defs>
<marker id="arrow" markerWidth="5" markerHeight="4" refX="2.5" refY="2" orient="auto" markerUnits="strokeWidth">
<path d="M0,0 L0.5,2 L0,4 L4.5,2 z" fill="#000000" />
</marker>
</defs>
<circle cx="8" cy="20" r="3" stroke="#000000" stroke-width="2" fill="#ffffff"/>
<path d="M47,40 A16,16 0 0,1 47,8 H57 A16,16 0 0,1 57,40 z" fill="#000000" fill-opacity="0.4980392156862745" />
<path d="M44,37 A16,16 0 0,1 44,5 H54 A16,16 0 0,1 54,37 z" stroke="#000000" stroke-width="2" fill="#b3e5fc" fill-opacity="1.0" />
<text class="token_font" x="49" y="26">A</text>
<path d="M106,40 A16,16 0 0,1 106,8 H116 A16,16 0 0,1 116,40 z" fill="#000000" fill-opacity="0.4980392156862745" />
<path d="M103,37 A16,16 0 0,1 103,5 H113 A16,16 0 0,1 113,37 z" stroke="#000000" stroke-width="2" fill="#b3e5fc" fill-opacity="1.0" />
<text class="token_font" x="108" y="26">B</text>
<line x1="69" y1="20" x2="83" y2="20" stroke="#000000" stroke-width="2" marker-end="url(#arrow)" />
<path d="M83,110 A16,16 0 0,1 83,78 H142 A16,16 0 0,1 142,110 z" fill="#000000" fill-opacity="0.4980392156862745" />
<path d="M80,107 A16,16 0 0,1 80,75 H139 A16,16 0 0,1 139,107 z" stroke="#000000" stroke-width="2" fill="#b3e5fc" fill-opacity="1.0" />
<text class="token_font" x="109" y="96">bypass</text>
<line x1="129" y1="20" x2="147" y2="20" stroke="#000000" stroke-width="2" />
<path d="M156,29 A9,9 0 0,0 147,20" stroke="#000000" stroke-width="2" fill="none"/>
<line x1="156" y1="29" x2="156" y2="47" stroke="#000000" stroke-width="2" />
<path d="M147,56 A9,9 0 0,0 156,47" stroke="#000000" stroke-width="2" fill="none"/>
<line x1="147" y1="56" x2="100" y2="56" stroke="#000000" stroke-width="2" marker-end="url(#arrow)" />
<line x1="96" y1="56" x2="46" y2="56" stroke="#000000" stroke-width="2" />
<path d="M46,56 A9,9 0 0,0 37,65" stroke="#000000" stroke-width="2" fill="none"/>
<line x1="37" y1="65" x2="37" y2="81" stroke="#000000" stroke-width="2" />
<path d="M37,81 A9,9 0 0,0 46,90" stroke="#000000" stroke-width="2" fill="none"/>
<line x1="46" y1="90" x2="60" y2="90" stroke="#000000" stroke-width="2" marker-end="url(#arrow)" />
<path d="M83,180 A16,16 0 0,1 83,148 H129 A16,16 0 0,1 129,180 z" fill="#000000" fill-opacity="0.4980392156862745" />
<path d="M80,177 A16,16 0 0,1 80,145 H126 A16,16 0 0,1 126,177 z" stroke="#000000" stroke-width="2" fill="#b3e5fc" fill-opacity="1.0" />
<text class="token_font" x="103" y="166">finish</text>
<line x1="37" y1="81" x2="37" y2="104" stroke="#000000" stroke-width="2" marker-end="url(#arrow)" />
<line x1="37" y1="108" x2="37" y2="135" stroke="#000000" stroke-width="2" />
<line x1="155" y1="90" x2="173" y2="90" stroke="#000000" stroke-width="2" />
<path d="M182,99 A9,9 0 0,0 173,90" stroke="#000000" stroke-width="2" fill="none"/>
<line x1="182" y1="99" x2="182" y2="117" stroke="#000000" stroke-width="2" />
<path d="M173,126 A9,9 0 0,0 182,117" stroke="#000000" stroke-width="2" fill="none"/>
<line x1="173" y1="126" x2="113" y2="126" stroke="#000000" stroke-width="2" marker-end="url(#arrow)" />
<line x1="109" y1="126" x2="46" y2="126" stroke="#000000" stroke-width="2" />
<path d="M46,126 A9,9 0 0,0 37,135" stroke="#000000" stroke-width="2" fill="none"/>
<line x1="37" y1="135" x2="37" y2="151" stroke="#000000" stroke-width="2" />
<path d="M37,151 A9,9 0 0,0 46,160" stroke="#000000" stroke-width="2" fill="none"/>
<line x1="46" y1="160" x2="60" y2="160" stroke="#000000" stroke-width="2" marker-end="url(#arrow)" />
<line x1="10" y1="20" x2="24" y2="20" stroke="#000000" stroke-width="2" marker-end="url(#arrow)" />
<circle cx="162" cy="160" r="3" stroke="#000000" stroke-width="2" fill="#ffffff"/>
<line x1="141" y1="160" x2="155" y2="160" stroke="#000000" stroke-width="2" marker-end="url(#arrow)" />
</svg>
