<?xml version="1.0" encoding="UTF-8" standalone="no"?>
<!-- Created by Jyntrax https://github.com/atp-mipt/jsyntrax -->
<svg xmlns="http://www.w3.org/2000/svg"
xmlns:xlink="http://www.w3.org/1999/xlink"
xml:space="preserve"
width="207" height="67" version="1.1">
<style type="text/css">
<![CDATA[
.title_font {fill:#000000; text-anchor:middle;
font-family:Helvetica; font-size:16pt; font-weight:bold; font-style:normal; }
.token_font {fill:#000000; text-anchor:middle;
font-family:Helvetica; font-size:16pt; font-weight:bold; font-style:normal; }
.box_font {fill:#000000; text-anchor:middle;
font-family:Times; font-size:14pt; font-weight:normal; font-style:italic; }
.bubble_font {fill:#000000; text-anchor:middle;
font-family:Helvetica; font-size:14pt; font-weight:bold; font-style:normal; }
.label {fill: #000; text-anchor:middle; font-size:16pt; font-weight:bold; font-family:Sans;}
.link {fill: #0D47A1;}
.link:hover {fill: #0D47A1; text-decoration:underline;}
.link:visited {fill: #4A148C;}
]]>
</style>
<defs>
<marker id="arrow" markerWidth="5" markerHeight="4" refX="2.5" refY="2" orient="auto" markerUnits="strokeWidth">
<path d="M0,0 L0.5,2 L0,4 L4.5,2 z" fill="#000000" />
</marker>
</defs>
<rect width="100%" height="100%" fill="white"/>
<circle cx="8" cy="45" r="3" stroke="#000000" stroke-width="2" fill="#ffffff"/>
<path d="M47,65 A16,16 0 0,1 47,33 H54 A16,16 0 0,1 54,65 z" fill="#000000" fill-opacity="0.4980392156862745" />
<path d="M44,62 A16,16 0 0,1 44,30 H51 A16,16 0 0,1 51,62 z" stroke="#000000" stroke-width="2" fill="#b3e5fc" fill-opacity="1.0" />
<text class="token_font" x="47" y="51">x</text>
<path d="M103,65 A16,16 0 0,1 103,33 H110 A16,16 0 0,1 110,65 z" fill="#000000" fill-opacity="0.4980392156862745" />
<path d="M100,62 A16,16 0 0,1 100,30 H107 A16,16 0 0,1 107,62 z" stroke="#000000" stroke-width="2" fill="#b3e5fc" fill-opacity="1.0" />
<text class="token_font" x="103" y="51">y</text>
<line x1="66" y1="45" x2="80" y2="45" stroke="#000000" stroke-width="2" marker-end="url(#arrow)" />
<path d="M159,65 A16,16 0 0,1 159,33 H166 A16,16 0 0,1 166,65 z" fill="#000000" fill-opacity="0.4980392156862745" />
<path d="M156,62 A16,16 0 0,1 156,30 H163 A16,16 0 0,1 163,62 z" stroke="#000000" stroke-width="2" fill="#b3e5fc" fill-opacity="1.0" />
<text class="token_font" x="159" y="51">z</text>
<line x1="122" y1="45" x2="136" y2="45" stroke="#000000" stroke-width="2" marker-end="url(#arrow)" />
<line x1="10" y1="45" x2="24" y2="45" stroke="#000000" stroke-width="2" marker-end="url(#arrow)" />
<circle cx="199" cy="45" r="3" stroke="#000000" stroke-width="2" fill="#ffffff"/>
<line x1="178" y1="45" x2="192" y2="45" stroke="#000000" stroke-width="2" marker-end="url(#arrow)" />
<text class="title_font" x="95" y="22">Diagram with title</text>
</svg>
