<?xml version="1.0" encoding="UTF-8" standalone="no"?>
<!-- Created by Jyntrax https://github.com/atp-mipt/jsyntrax -->
<svg xmlns="http://www.w3.org/2000/svg"
xmlns:xlink="http://www.w3.org/1999/xlink"
xml:space="preserve"
width="451" height="274" version="1.1">
<style type="text/css">
<![CDATA[
.title_font {fill:#000000; text-anchor:middle;
font-family:Sans; font-size:22pt; font-weight:bold; font-style:normal; }
.token_font {fill:#000000; text-anchor:middle;
font-family:Times; font-size:16pt; font-weight:normal; font-style:italic; }
.box_font {fill:#646464; text-anchor:middle;
font-family:Sans; font-size:14pt; font-weight:bold; font-style:normal; }
.hex_bubble_font {fill:#000000; text-anchor:middle;
font-family:Sans; font-size:14pt; font-weight:bold; font-style:normal; }
.label {fill: #000; text-anchor:middle; font-size:16pt; font-weight:bold; font-family:Sans;}
.link {fill: #0D47A1;}
.link:hover {fill: #0D47A1; text-decoration:underline;}
.link:visited {fill: #4A148C;}
]]>
</style>
<defs>
<marker id="arrow" markerWidth="5" markerHeight="4" refX="2.5" refY="2" orient="auto" markerUnits="strokeWidth">
<path d="M0,0 L0.5,2 L0,4 L4.5,2 z" fill="#000000" />
</marker>
</defs>
<rect width="100%" height="100%" fill="white"/>
<circle cx="9" cy="17" r="4" stroke="#000000" stroke-width="3" fill="#ffff00"/>
<path d="M41,37 H120 L127,23 L120,9 H41 L34,23 z" fill="#000000" fill-opacity="0.4980392156862745" />
<path d="M37,33 H116 L123,19 L116,5 H37 L30,19 z" stroke="#000000" stroke-width="3" fill="#ff0000" fill-opacity="0.4980392156862745" />
<text class="hex_bubble_font" x="76" y="24">attribute</text>
<rect x="144" y="9" width="175" height="28" fill="#000000" fill-opacity="0.4980392156862745" />
<rect x="140" y="5" width="175" height="28" stroke="#000000" stroke-width="3" fill="#88aaee" fill-opacity="1.0" />
<text class="box_font" x="227" y="24">/(attribute) identifier</text>
<line x1="122" y1="17" x2="136" y2="17" stroke="#000000" stroke-width="3" marker-end="url(#arrow)" />
<path d="M343,37 H372 L379,23 L372,9 H343 L336,23 z" fill="#000000" fill-opacity="0.4980392156862745" />
<path d="M339,33 H368 L375,19 L368,5 H339 L332,19 z" stroke="#000000" stroke-width="3" fill="#ff0000" fill-opacity="0.4980392156862745" />
<text class="hex_bubble_font" x="353" y="24">of</text>
<line x1="314" y1="17" x2="328" y2="17" stroke="#000000" stroke-width="3" marker-end="url(#arrow)" />
<rect x="97" y="111" width="158" height="28" fill="#000000" fill-opacity="0.4980392156862745" />
<rect x="93" y="107" width="158" height="28" stroke="#000000" stroke-width="3" fill="#88aaee" fill-opacity="1.0" />
<text class="box_font" x="172" y="126">/entity_designator</text>
<path d="M174,107 A16,16 0 0,1 174,75 H177 A16,16 0 0,1 177,107 z" fill="#000000" fill-opacity="0.4980392156862745" />
<path d="M170,103 A16,16 0 0,1 170,71 H173 A16,16 0 0,1 173,103 z" stroke="#000000" stroke-width="3" fill="#00ff00" fill-opacity="0.4980392156862745" />
<text class="token_font" x="171" y="92">,</text>
<line x1="93" y1="86" x2="154" y2="86" stroke="#000000" stroke-width="3" />
<line x1="189" y1="86" x2="251" y2="86" stroke="#000000" stroke-width="3" />
<line x1="84" y1="119" x2="93" y2="119" stroke="#000000" stroke-width="3" />
<path d="M93,86 A16,16 0 0,0 93,118" stroke="#000000" stroke-width="3" fill="none"/>
<path d="M251,118 A16,16 0 0,0 251,86" stroke="#000000" stroke-width="3" fill="none"/>
<line x1="251" y1="119" x2="267" y2="119" stroke="#000000" stroke-width="3" />
<path d="M105,171 H167 L174,157 L167,143 H105 L98,157 z" fill="#000000" fill-opacity="0.4980392156862745" />
<path d="M101,167 H163 L170,153 L163,139 H101 L94,153 z" stroke="#000000" stroke-width="3" fill="#ff0000" fill-opacity="0.4980392156862745" />
<text class="hex_bubble_font" x="132" y="158">others</text>
<path d="M105,203 H137 L144,189 L137,175 H105 L98,189 z" fill="#000000" fill-opacity="0.4980392156862745" />
<path d="M101,199 H133 L140,185 L133,171 H101 L94,185 z" stroke="#000000" stroke-width="3" fill="#ff0000" fill-opacity="0.4980392156862745" />
<text class="hex_bubble_font" x="117" y="190">all</text>
<line x1="66" y1="119" x2="84" y2="119" stroke="#000000" stroke-width="3" />
<line x1="267" y1="119" x2="293" y2="119" stroke="#000000" stroke-width="3" />
<path d="M75,128 A9,9 0 0,0 66,119" stroke="#000000" stroke-width="3" fill="none"/>
<line x1="84" y1="151" x2="90" y2="151" stroke="#000000" stroke-width="3" marker-end="url(#arrow)" />
<line x1="170" y1="151" x2="274" y2="151" stroke="#000000" stroke-width="3" />
<path d="M75,142 A9,9 0 0,0 84,151" stroke="#000000" stroke-width="3" fill="none"/>
<path d="M274,151 A9,9 0 0,0 283,142" stroke="#000000" stroke-width="3" fill="none"/>
<line x1="84" y1="183" x2="90" y2="183" stroke="#000000" stroke-width="3" marker-end="url(#arrow)" />
<line x1="140" y1="183" x2="274" y2="183" stroke="#000000" stroke-width="3" />
<path d="M75,174 A9,9 0 0,0 84,183" stroke="#000000" stroke-width="3" fill="none"/>
<path d="M274,183 A9,9 0 0,0 283,174" stroke="#000000" stroke-width="3" fill="none"/>
<path d="M292,119 A9,9 0 0,0 283,128" stroke="#000000" stroke-width="3" fill="none"/>
<line x1="75" y1="174" x2="75" y2="128" stroke="#000000" stroke-width="3" />
<line x1="283" y1="174" x2="283" y2="128" stroke="#000000" stroke-width="3" />
<path d="M329,140 A16,16 0 0,1 329,108 H332 A16,16 0 0,1 332,140 z" fill="#000000" fill-opacity="0.4980392156862745" />
<path d="M325,136 A16,16 0 0,1 325,104 H328 A16,16 0 0,1 328,136 z" stroke="#000000" stroke-width="3" fill="#00ff00" fill-opacity="0.4980392156862745" />
<text class="token_font" x="326" y="125">:</text>
<line x1="291" y1="119" x2="305" y2="119" stroke="#000000" stroke-width="3" marker-end="url(#arrow)" />
<line x1="375" y1="17" x2="393" y2="17" stroke="#000000" stroke-width="3" />
<path d="M393,51 A17,17 0 0,0 393,17" stroke="#000000" stroke-width="3" fill="none"/>
<line x1="393" y1="52" x2="224" y2="52" stroke="#000000" stroke-width="3" marker-end="url(#arrow)" />
<line x1="220" y1="52" x2="48" y2="52" stroke="#000000" stroke-width="3" />
<path d="M48,52 A33,33 0 0,0 47,118" stroke="#000000" stroke-width="3" fill="none"/>
<line x1="48" y1="119" x2="62" y2="119" stroke="#000000" stroke-width="3" marker-end="url(#arrow)" />
<rect x="70" y="244" width="117" height="28" fill="#000000" fill-opacity="0.4980392156862745" />
<rect x="66" y="240" width="117" height="28" stroke="#000000" stroke-width="3" fill="#88aaee" fill-opacity="1.0" />
<text class="box_font" x="124" y="259">/entity_class</text>
<path d="M211,272 H238 L245,258 L238,244 H211 L204,258 z" fill="#000000" fill-opacity="0.4980392156862745" />
<path d="M207,268 H234 L241,254 L234,240 H207 L200,254 z" stroke="#000000" stroke-width="3" fill="#ff0000" fill-opacity="0.4980392156862745" />
<text class="hex_bubble_font" x="220" y="259">is</text>
<line x1="182" y1="252" x2="196" y2="252" stroke="#000000" stroke-width="3" marker-end="url(#arrow)" />
<path d="M269,272 H366 L373,258 L366,244 H269 L262,258 z" fill="#000000" fill-opacity="0.4980392156862745" />
<path d="M265,268 H362 L369,254 L362,240 H265 L258,254 z" stroke="#000000" stroke-width="3" fill="#ff0000" fill-opacity="0.4980392156862745" />
<text class="hex_bubble_font" x="313" y="259">expression</text>
<line x1="240" y1="252" x2="254" y2="252" stroke="#000000" stroke-width="3" marker-end="url(#arrow)" />
<path d="M406,273 A16,16 0 0,1 406,241 H409 A16,16 0 0,1 409,273 z" fill="#000000" fill-opacity="0.4980392156862745" />
<path d="M402,269 A16,16 0 0,1 402,237 H405 A16,16 0 0,1 405,269 z" stroke="#000000" stroke-width="3" fill="#00ff00" fill-opacity="0.4980392156862745" />
<text class="token_font" x="403" y="258">;</text>
<line x1="368" y1="252" x2="382" y2="252" stroke="#000000" stroke-width="3" marker-end="url(#arrow)" />
<line x1="344" y1="119" x2="362" y2="119" stroke="#000000" stroke-width="3" />
<path d="M391,148 A29,29 0 0,0 362,119" stroke="#000000" stroke-width="3" fill="none"/>
<line x1="391" y1="148" x2="391" y2="189" stroke="#000000" stroke-width="3" />
<path d="M362,218 A29,29 0 0,0 391,189" stroke="#000000" stroke-width="3" fill="none"/>
<line x1="362" y1="218" x2="209" y2="218" stroke="#000000" stroke-width="3" marker-end="url(#arrow)" />
<line x1="205" y1="218" x2="48" y2="218" stroke="#000000" stroke-width="3" />
<path d="M48,218 A17,17 0 0,0 48,252" stroke="#000000" stroke-width="3" fill="none"/>
<line x1="48" y1="252" x2="62" y2="252" stroke="#000000" stroke-width="3" marker-end="url(#arrow)" />
<line x1="12" y1="17" x2="26" y2="17" stroke="#000000" stroke-width="3" marker-end="url(#arrow)" />
<circle cx="442" cy="252" r="4" stroke="#000000" stroke-width="3" fill="#ffff00"/>
<line x1="420" y1="252" x2="434" y2="252" stroke="#000000" stroke-width="3" marker-end="url(#arrow)" />
</svg>
