<?xml version="1.0" encoding="UTF-8" standalone="no"?>
<!-- Created by Jyntrax https://github.com/atp-mipt/java-syntrax -->
<svg xmlns="http://www.w3.org/2000/svg"
xmlns:xlink="http://www.w3.org/1999/xlink"
xml:space="preserve"
width="626" height="220" version="1.1">
<style type="text/css">
<![CDATA[
.title_font {fill:#000000; text-anchor:middle;
font-family:Sans; font-size:22pt; font-weight:bold; font-style:normal; }
.token_font {fill:#000000; text-anchor:middle;
font-family:Sans; font-size:16pt; font-weight:bold; font-style:normal; }
.box_font {fill:#000000; text-anchor:middle;
font-family:Times; font-size:14pt; font-weight:normal; font-style:italic; }
.bubble_font {fill:#000000; text-anchor:middle;
font-family:Sans; font-size:14pt; font-weight:bold; font-style:normal; }
.hex_font {fill:#000000; text-anchor:middle;
font-family:Sans; font-size:14pt; font-weight:bold; font-style:normal; }
.label {fill: #000; text-anchor:middle; font-size:16pt; font-weight:bold; font-family:Sans;}
.link {fill: #0D47A1;}
.link:hover {fill: #0D47A1; text-decoration:underline;}
.link:visited {fill: #4A148C;}
]]>
</style>
<defs>
<marker id="arrow" markerWidth="5" markerHeight="4" refX="2.5" refY="2" orient="auto" markerUnits="strokeWidth">
<path d="M0,0 L0.5,2 L0,4 L4.5,2 z" fill="#000000" />
</marker>
</defs>
<rect width="100%" height="100%" fill="white"/>
<circle cx="8" cy="19" r="3" stroke="#000000" stroke-width="2" fill="#ffffff"/>
<line x1="73" y1="19" x2="74" y2="19" stroke="#000000" stroke-width="2" />
<path d="M75,58 A16,16 0 0,1 75,26 H79 A16,16 0 0,1 79,58 z" fill="#000000" fill-opacity="0.4980392156862745" />
<path d="M72,55 A16,16 0 0,1 72,23 H76 A16,16 0 0,1 76,55 z" stroke="#000000" stroke-width="2" fill="#b3e5fc" fill-opacity="1.0" />
<text class="token_font" x="74" y="46">-</text>
<line x1="28" y1="19" x2="69" y2="19" stroke="#000000" stroke-width="2" marker-end="url(#arrow)" />
<line x1="74" y1="19" x2="121" y2="19" stroke="#000000" stroke-width="2" />
<path d="M37,28 A9,9 0 0,0 28,19" stroke="#000000" stroke-width="2" fill="none"/>
<line x1="46" y1="38" x2="52" y2="38" stroke="#000000" stroke-width="2" marker-end="url(#arrow)" />
<line x1="92" y1="38" x2="102" y2="38" stroke="#000000" stroke-width="2" />
<path d="M37,29 A9,9 0 0,0 46,38" stroke="#000000" stroke-width="2" fill="none"/>
<path d="M102,38 A9,9 0 0,0 111,29" stroke="#000000" stroke-width="2" fill="none"/>
<path d="M120,19 A9,9 0 0,0 111,28" stroke="#000000" stroke-width="2" fill="none"/>
<line x1="37" y1="29" x2="37" y2="28" stroke="#000000" stroke-width="2" />
<line x1="111" y1="29" x2="111" y2="28" stroke="#000000" stroke-width="2" />
<path d="M183,38 A15,15 0 0,1 183,8 H192 A15,15 0 0,1 192,38 z" fill="#000000" fill-opacity="0.4980392156862745" />
<path d="M180,35 A15,15 0 0,1 180,5 H189 A15,15 0 0,1 189,35 z" stroke="#000000" stroke-width="2" fill="#b3e5fc" fill-opacity="1.0" />
<text class="bubble_font" x="184" y="27">0</text>
<path d="M183,72 A15,15 0 0,1 183,42 H207 A15,15 0 0,1 207,72 z" fill="#000000" fill-opacity="0.4980392156862745" />
<path d="M180,69 A15,15 0 0,1 180,39 H204 A15,15 0 0,1 204,69 z" stroke="#000000" stroke-width="2" fill="#b3e5fc" fill-opacity="1.0" />
<text class="bubble_font" x="192" y="61">1-9</text>
<line x1="271" y1="53" x2="272" y2="53" stroke="#000000" stroke-width="2" />
<path d="M263,90 A15,15 0 0,1 263,60 H287 A15,15 0 0,1 287,90 z" fill="#000000" fill-opacity="0.4980392156862745" />
<path d="M260,87 A15,15 0 0,1 260,57 H284 A15,15 0 0,1 284,87 z" stroke="#000000" stroke-width="2" fill="#b3e5fc" fill-opacity="1.0" />
<text class="bubble_font" x="272" y="79">0-9</text>
<line x1="245" y1="53" x2="267" y2="53" stroke="#000000" stroke-width="2" marker-end="url(#arrow)" />
<line x1="272" y1="53" x2="299" y2="53" stroke="#000000" stroke-width="2" />
<line x1="236" y1="53" x2="245" y2="53" stroke="#000000" stroke-width="2" />
<path d="M245,53 A9,9 0 0,0 245,71" stroke="#000000" stroke-width="2" fill="none"/>
<path d="M299,71 A9,9 0 0,0 299,53" stroke="#000000" stroke-width="2" fill="none"/>
<line x1="299" y1="53" x2="308" y2="53" stroke="#000000" stroke-width="2" />
<line x1="218" y1="53" x2="232" y2="53" stroke="#000000" stroke-width="2" marker-end="url(#arrow)" />
<line x1="137" y1="19" x2="161" y2="19" stroke="#000000" stroke-width="2" marker-end="url(#arrow)" />
<line x1="204" y1="19" x2="337" y2="19" stroke="#000000" stroke-width="2" />
<path d="M146,28 A9,9 0 0,0 137,19" stroke="#000000" stroke-width="2" fill="none"/>
<line x1="155" y1="53" x2="161" y2="53" stroke="#000000" stroke-width="2" marker-end="url(#arrow)" />
<line x1="308" y1="53" x2="318" y2="53" stroke="#000000" stroke-width="2" />
<path d="M146,44 A9,9 0 0,0 155,53" stroke="#000000" stroke-width="2" fill="none"/>
<path d="M318,53 A9,9 0 0,0 327,44" stroke="#000000" stroke-width="2" fill="none"/>
<path d="M336,19 A9,9 0 0,0 327,28" stroke="#000000" stroke-width="2" fill="none"/>
<line x1="146" y1="44" x2="146" y2="28" stroke="#000000" stroke-width="2" />
<line x1="327" y1="44" x2="327" y2="28" stroke="#000000" stroke-width="2" />
<line x1="119" y1="19" x2="133" y2="19" stroke="#000000" stroke-width="2" marker-end="url(#arrow)" />
<line x1="443" y1="19" x2="444" y2="19" stroke="#000000" stroke-width="2" />
<path d="M400,58 A16,16 0 0,1 400,26 H403 A16,16 0 0,1 403,58 z" fill="#000000" fill-opacity="0.4980392156862745" />
<path d="M397,55 A16,16 0 0,1 397,23 H400 A16,16 0 0,1 400,55 z" stroke="#000000" stroke-width="2" fill="#b3e5fc" fill-opacity="1.0" />
<text class="token_font" x="398" y="46">.</text>
<path d="M460,57 A15,15 0 0,1 460,27 H484 A15,15 0 0,1 484,57 z" fill="#000000" fill-opacity="0.4980392156862745" />
<path d="M457,54 A15,15 0 0,1 457,24 H481 A15,15 0 0,1 481,54 z" stroke="#000000" stroke-width="2" fill="#b3e5fc" fill-opacity="1.0" />
<text class="bubble_font" x="469" y="46">0-9</text>
<line x1="468" y1="58" x2="469" y2="58" stroke="#000000" stroke-width="2" />
<line x1="442" y1="58" x2="468" y2="58" stroke="#000000" stroke-width="2" />
<line x1="496" y1="58" x2="473" y2="58" stroke="#000000" stroke-width="2" marker-end="url(#arrow)" />
<line x1="433" y1="38" x2="442" y2="38" stroke="#000000" stroke-width="2" />
<path d="M442,38 A10,10 0 0,0 442,58" stroke="#000000" stroke-width="2" fill="none"/>
<path d="M496,58 A10,10 0 0,0 496,38" stroke="#000000" stroke-width="2" fill="none"/>
<line x1="496" y1="38" x2="505" y2="38" stroke="#000000" stroke-width="2" />
<line x1="415" y1="38" x2="429" y2="38" stroke="#000000" stroke-width="2" marker-end="url(#arrow)" />
<line x1="353" y1="19" x2="439" y2="19" stroke="#000000" stroke-width="2" marker-end="url(#arrow)" />
<line x1="444" y1="19" x2="535" y2="19" stroke="#000000" stroke-width="2" />
<path d="M362,28 A9,9 0 0,0 353,19" stroke="#000000" stroke-width="2" fill="none"/>
<line x1="371" y1="38" x2="377" y2="38" stroke="#000000" stroke-width="2" marker-end="url(#arrow)" />
<line x1="505" y1="38" x2="516" y2="38" stroke="#000000" stroke-width="2" />
<path d="M362,29 A9,9 0 0,0 371,38" stroke="#000000" stroke-width="2" fill="none"/>
<path d="M516,38 A9,9 0 0,0 525,29" stroke="#000000" stroke-width="2" fill="none"/>
<path d="M534,19 A9,9 0 0,0 525,28" stroke="#000000" stroke-width="2" fill="none"/>
<line x1="362" y1="29" x2="362" y2="28" stroke="#000000" stroke-width="2" />
<line x1="525" y1="29" x2="525" y2="28" stroke="#000000" stroke-width="2" />
<line x1="335" y1="19" x2="349" y2="19" stroke="#000000" stroke-width="2" marker-end="url(#arrow)" />
<line x1="415" y1="125" x2="416" y2="125" stroke="#000000" stroke-width="2" />
<path d="M308,162 A15,15 0 0,1 308,132 H317 A15,15 0 0,1 317,162 z" fill="#000000" fill-opacity="0.4980392156862745" />
<path d="M305,159 A15,15 0 0,1 305,129 H314 A15,15 0 0,1 314,159 z" stroke="#000000" stroke-width="2" fill="#b3e5fc" fill-opacity="1.0" />
<text class="bubble_font" x="309" y="151">e</text>
<path d="M308,196 A15,15 0 0,1 308,166 H318 A15,15 0 0,1 318,196 z" fill="#000000" fill-opacity="0.4980392156862745" />
<path d="M305,193 A15,15 0 0,1 305,163 H315 A15,15 0 0,1 315,193 z" stroke="#000000" stroke-width="2" fill="#b3e5fc" fill-opacity="1.0" />
<text class="bubble_font" x="310" y="185">E</text>
<line x1="262" y1="143" x2="286" y2="143" stroke="#000000" stroke-width="2" marker-end="url(#arrow)" />
<line x1="329" y1="143" x2="359" y2="143" stroke="#000000" stroke-width="2" />
<path d="M271,152 A9,9 0 0,0 262,143" stroke="#000000" stroke-width="2" fill="none"/>
<line x1="280" y1="177" x2="286" y2="177" stroke="#000000" stroke-width="2" marker-end="url(#arrow)" />
<line x1="330" y1="177" x2="340" y2="177" stroke="#000000" stroke-width="2" />
<path d="M271,168 A9,9 0 0,0 280,177" stroke="#000000" stroke-width="2" fill="none"/>
<path d="M340,177 A9,9 0 0,0 349,168" stroke="#000000" stroke-width="2" fill="none"/>
<path d="M358,143 A9,9 0 0,0 349,152" stroke="#000000" stroke-width="2" fill="none"/>
<line x1="271" y1="168" x2="271" y2="152" stroke="#000000" stroke-width="2" />
<line x1="349" y1="168" x2="349" y2="152" stroke="#000000" stroke-width="2" />
<line x1="422" y1="143" x2="423" y2="143" stroke="#000000" stroke-width="2" />
<path d="M422,182 A16,16 0 0,1 422,150 H430 A16,16 0 0,1 430,182 z" fill="#000000" fill-opacity="0.4980392156862745" />
<path d="M419,179 A16,16 0 0,1 419,147 H427 A16,16 0 0,1 427,179 z" stroke="#000000" stroke-width="2" fill="#b3e5fc" fill-opacity="1.0" />
<text class="token_font" x="423" y="170">+</text>
<path d="M422,218 A16,16 0 0,1 422,186 H426 A16,16 0 0,1 426,218 z" fill="#000000" fill-opacity="0.4980392156862745" />
<path d="M419,215 A16,16 0 0,1 419,183 H423 A16,16 0 0,1 423,215 z" stroke="#000000" stroke-width="2" fill="#b3e5fc" fill-opacity="1.0" />
<text class="token_font" x="421" y="206">-</text>
<line x1="375" y1="143" x2="418" y2="143" stroke="#000000" stroke-width="2" marker-end="url(#arrow)" />
<line x1="423" y1="143" x2="472" y2="143" stroke="#000000" stroke-width="2" />
<path d="M384,152 A9,9 0 0,0 375,143" stroke="#000000" stroke-width="2" fill="none"/>
<line x1="393" y1="162" x2="399" y2="162" stroke="#000000" stroke-width="2" marker-end="url(#arrow)" />
<line x1="443" y1="162" x2="453" y2="162" stroke="#000000" stroke-width="2" />
<path d="M384,153 A9,9 0 0,0 393,162" stroke="#000000" stroke-width="2" fill="none"/>
<path d="M453,162 A9,9 0 0,0 462,153" stroke="#000000" stroke-width="2" fill="none"/>
<line x1="393" y1="198" x2="399" y2="198" stroke="#000000" stroke-width="2" marker-end="url(#arrow)" />
<line x1="439" y1="198" x2="453" y2="198" stroke="#000000" stroke-width="2" />
<path d="M384,189 A9,9 0 0,0 393,198" stroke="#000000" stroke-width="2" fill="none"/>
<path d="M453,198 A9,9 0 0,0 462,189" stroke="#000000" stroke-width="2" fill="none"/>
<path d="M471,143 A9,9 0 0,0 462,152" stroke="#000000" stroke-width="2" fill="none"/>
<line x1="384" y1="189" x2="384" y2="152" stroke="#000000" stroke-width="2" />
<line x1="462" y1="189" x2="462" y2="152" stroke="#000000" stroke-width="2" />
<line x1="357" y1="143" x2="371" y2="143" stroke="#000000" stroke-width="2" marker-end="url(#arrow)" />
<path d="M515,162 A15,15 0 0,1 515,132 H539 A15,15 0 0,1 539,162 z" fill="#000000" fill-opacity="0.4980392156862745" />
<path d="M512,159 A15,15 0 0,1 512,129 H536 A15,15 0 0,1 536,159 z" stroke="#000000" stroke-width="2" fill="#b3e5fc" fill-opacity="1.0" />
<text class="bubble_font" x="524" y="151">0-9</text>
<line x1="523" y1="163" x2="524" y2="163" stroke="#000000" stroke-width="2" />
<line x1="497" y1="163" x2="523" y2="163" stroke="#000000" stroke-width="2" />
<line x1="551" y1="163" x2="528" y2="163" stroke="#000000" stroke-width="2" marker-end="url(#arrow)" />
<line x1="488" y1="143" x2="497" y2="143" stroke="#000000" stroke-width="2" />
<path d="M497,143 A10,10 0 0,0 497,163" stroke="#000000" stroke-width="2" fill="none"/>
<path d="M551,163 A10,10 0 0,0 551,143" stroke="#000000" stroke-width="2" fill="none"/>
<line x1="551" y1="143" x2="560" y2="143" stroke="#000000" stroke-width="2" />
<line x1="470" y1="143" x2="484" y2="143" stroke="#000000" stroke-width="2" marker-end="url(#arrow)" />
<line x1="234" y1="125" x2="411" y2="125" stroke="#000000" stroke-width="2" marker-end="url(#arrow)" />
<line x1="416" y1="125" x2="599" y2="125" stroke="#000000" stroke-width="2" />
<path d="M243,134 A9,9 0 0,0 234,125" stroke="#000000" stroke-width="2" fill="none"/>
<line x1="252" y1="143" x2="258" y2="143" stroke="#000000" stroke-width="2" marker-end="url(#arrow)" />
<line x1="560" y1="143" x2="580" y2="143" stroke="#000000" stroke-width="2" />
<path d="M243,134 A9,9 0 0,0 252,143" stroke="#000000" stroke-width="2" fill="none"/>
<path d="M580,143 A9,9 0 0,0 589,134" stroke="#000000" stroke-width="2" fill="none"/>
<path d="M598,125 A9,9 0 0,0 589,134" stroke="#000000" stroke-width="2" fill="none"/>
<line x1="243" y1="134" x2="243" y2="134" stroke="#000000" stroke-width="2" />
<line x1="589" y1="134" x2="589" y2="134" stroke="#000000" stroke-width="2" />
<line x1="534" y1="19" x2="552" y2="19" stroke="#000000" stroke-width="2" />
<path d="M561,28 A9,9 0 0,0 552,19" stroke="#000000" stroke-width="2" fill="none"/>
<line x1="561" y1="28" x2="561" y2="58" stroke="#000000" stroke-width="2" marker-end="url(#arrow)" />
<line x1="561" y1="62" x2="561" y2="97" stroke="#000000" stroke-width="2" />
<path d="M552,106 A9,9 0 0,0 561,97" stroke="#000000" stroke-width="2" fill="none"/>
<line x1="552" y1="106" x2="388" y2="106" stroke="#000000" stroke-width="2" marker-end="url(#arrow)" />
<line x1="384" y1="106" x2="216" y2="106" stroke="#000000" stroke-width="2" />
<path d="M216,106 A9,9 0 0,0 216,124" stroke="#000000" stroke-width="2" fill="none"/>
<line x1="216" y1="125" x2="230" y2="125" stroke="#000000" stroke-width="2" marker-end="url(#arrow)" />
<line x1="10" y1="19" x2="24" y2="19" stroke="#000000" stroke-width="2" marker-end="url(#arrow)" />
<circle cx="618" cy="125" r="3" stroke="#000000" stroke-width="2" fill="#ffffff"/>
<line x1="597" y1="125" x2="611" y2="125" stroke="#000000" stroke-width="2" marker-end="url(#arrow)" />
</svg>
